<mxfile host="app.diagrams.net" modified="2023-03-25T09:51:34.016Z" agent="Mozilla/5.0 (Windows NT 10.0; Win64; x64) AppleWebKit/537.36 (KHTML, like Gecko) Chrome/111.0.0.0 Safari/537.36" etag="X21UtO0Ffi4o3XswJatc" version="21.1.0" type="device" pages="7">
  <diagram id="C5RBs43oDa-KdzZeNtuy" name="Intro">
    <mxGraphModel dx="989" dy="626" grid="1" gridSize="10" guides="1" tooltips="1" connect="1" arrows="1" fold="1" page="1" pageScale="1" pageWidth="827" pageHeight="1169" math="0" shadow="0">
      <root>
        <mxCell id="WIyWlLk6GJQsqaUBKTNV-0" />
        <mxCell id="WIyWlLk6GJQsqaUBKTNV-1" parent="WIyWlLk6GJQsqaUBKTNV-0" />
        <mxCell id="hJcTUdlUinlOazGfZ7DR-0" value="Creature AI는 세가지이다." style="text;html=1;strokeColor=none;fillColor=none;align=left;verticalAlign=top;whiteSpace=wrap;rounded=0;fontStyle=1" parent="WIyWlLk6GJQsqaUBKTNV-1" vertex="1">
          <mxGeometry x="40" y="40" width="480" height="30" as="geometry" />
        </mxCell>
        <mxCell id="hJcTUdlUinlOazGfZ7DR-1" value="Conduction: 행동강령" style="text;html=1;strokeColor=none;fillColor=none;align=left;verticalAlign=top;whiteSpace=wrap;rounded=0;fontStyle=1" parent="WIyWlLk6GJQsqaUBKTNV-1" vertex="1">
          <mxGeometry x="80" y="120" width="480" height="30" as="geometry" />
        </mxCell>
        <mxCell id="hJcTUdlUinlOazGfZ7DR-2" value="현재 받은 [명령]&lt;br&gt;ex: 경계근무, 추적, 교전, 산개, 집합 등" style="text;html=1;strokeColor=none;fillColor=none;align=left;verticalAlign=top;whiteSpace=wrap;rounded=0;fontStyle=1" parent="WIyWlLk6GJQsqaUBKTNV-1" vertex="1">
          <mxGeometry x="120" y="160" width="480" height="30" as="geometry" />
        </mxCell>
        <mxCell id="hJcTUdlUinlOazGfZ7DR-3" value="Act: 단순행동" style="text;html=1;strokeColor=none;fillColor=none;align=left;verticalAlign=top;whiteSpace=wrap;rounded=0;fontStyle=1" parent="WIyWlLk6GJQsqaUBKTNV-1" vertex="1">
          <mxGeometry x="80" y="400" width="480" height="30" as="geometry" />
        </mxCell>
        <mxCell id="hJcTUdlUinlOazGfZ7DR-4" value="현재 취하는 [행동] 자체&lt;br&gt;ex: 이동, 질주, 엄폐, 공격 등" style="text;html=1;strokeColor=none;fillColor=none;align=left;verticalAlign=top;whiteSpace=wrap;rounded=0;fontStyle=1" parent="WIyWlLk6GJQsqaUBKTNV-1" vertex="1">
          <mxGeometry x="120" y="440" width="480" height="30" as="geometry" />
        </mxCell>
        <mxCell id="hJcTUdlUinlOazGfZ7DR-5" value="하나의 행동강령은 :&lt;br&gt;1. 일시적이지 않다&lt;br&gt;2. 종료 시점까지 정해진 단순행동들을 실행한다" style="text;html=1;strokeColor=none;fillColor=none;align=left;verticalAlign=top;whiteSpace=wrap;rounded=0;fontStyle=1" parent="WIyWlLk6GJQsqaUBKTNV-1" vertex="1">
          <mxGeometry x="120" y="240" width="480" height="80" as="geometry" />
        </mxCell>
        <mxCell id="hJcTUdlUinlOazGfZ7DR-6" value="하나의 단순행동은 :&lt;br&gt;1. 일시적이다&lt;br&gt;2. 현재 단순 행동이 종료되면 끝" style="text;html=1;strokeColor=none;fillColor=none;align=left;verticalAlign=top;whiteSpace=wrap;rounded=0;fontStyle=1" parent="WIyWlLk6GJQsqaUBKTNV-1" vertex="1">
          <mxGeometry x="120" y="520" width="480" height="80" as="geometry" />
        </mxCell>
        <mxCell id="k82GgRxIljFtlNBxgE6x-0" value="Squad: 부대 행동" style="text;html=1;strokeColor=none;fillColor=none;align=left;verticalAlign=top;whiteSpace=wrap;rounded=0;fontStyle=1" parent="WIyWlLk6GJQsqaUBKTNV-1" vertex="1">
          <mxGeometry x="720" y="120" width="480" height="30" as="geometry" />
        </mxCell>
        <mxCell id="k82GgRxIljFtlNBxgE6x-1" value="개별의 개체들을 하나의 부대로 묶어주는 AI&lt;br&gt;한 개체가 식별한 정보를 부대 내 타 객체들과 공유한다" style="text;html=1;strokeColor=none;fillColor=none;align=left;verticalAlign=top;whiteSpace=wrap;rounded=0;fontStyle=1" parent="WIyWlLk6GJQsqaUBKTNV-1" vertex="1">
          <mxGeometry x="761" y="160" width="480" height="30" as="geometry" />
        </mxCell>
        <mxCell id="k82GgRxIljFtlNBxgE6x-3" value="AI의 행동은 기본적으로 아래의 흐름을 따른다." style="text;html=1;strokeColor=none;fillColor=none;align=left;verticalAlign=top;whiteSpace=wrap;rounded=0;fontStyle=1" parent="WIyWlLk6GJQsqaUBKTNV-1" vertex="1">
          <mxGeometry x="40" y="680" width="480" height="30" as="geometry" />
        </mxCell>
        <mxCell id="k82GgRxIljFtlNBxgE6x-4" value="식별 전" style="text;html=1;strokeColor=none;fillColor=none;align=left;verticalAlign=top;whiteSpace=wrap;rounded=0;fontStyle=1" parent="WIyWlLk6GJQsqaUBKTNV-1" vertex="1">
          <mxGeometry x="80" y="720" width="480" height="30" as="geometry" />
        </mxCell>
        <mxCell id="k82GgRxIljFtlNBxgE6x-5" value="1. 패트롤" style="text;html=1;strokeColor=none;fillColor=none;align=left;verticalAlign=top;whiteSpace=wrap;rounded=0;fontStyle=1" parent="WIyWlLk6GJQsqaUBKTNV-1" vertex="1">
          <mxGeometry x="120" y="760" width="480" height="30" as="geometry" />
        </mxCell>
        <mxCell id="k82GgRxIljFtlNBxgE6x-6" value="본인이 식별할 경우" style="text;html=1;strokeColor=none;fillColor=none;align=left;verticalAlign=top;whiteSpace=wrap;rounded=0;fontStyle=1" parent="WIyWlLk6GJQsqaUBKTNV-1" vertex="1">
          <mxGeometry x="80" y="840" width="480" height="40" as="geometry" />
        </mxCell>
        <mxCell id="k82GgRxIljFtlNBxgE6x-7" value="1. 적 식별 정보(위치)를 Squad AI에 알림&lt;br&gt;2. [전투] 상태로 돌입" style="text;html=1;strokeColor=none;fillColor=none;align=left;verticalAlign=top;whiteSpace=wrap;rounded=0;fontStyle=1" parent="WIyWlLk6GJQsqaUBKTNV-1" vertex="1">
          <mxGeometry x="120" y="880" width="480" height="40" as="geometry" />
        </mxCell>
        <mxCell id="k82GgRxIljFtlNBxgE6x-9" value="식별 알림을 받을 경우" style="text;html=1;strokeColor=none;fillColor=none;align=left;verticalAlign=top;whiteSpace=wrap;rounded=0;fontStyle=1" parent="WIyWlLk6GJQsqaUBKTNV-1" vertex="1">
          <mxGeometry x="80" y="960" width="480" height="40" as="geometry" />
        </mxCell>
        <mxCell id="k82GgRxIljFtlNBxgE6x-10" value="1. [전투] 상태 돌입" style="text;html=1;strokeColor=none;fillColor=none;align=left;verticalAlign=top;whiteSpace=wrap;rounded=0;fontStyle=1" parent="WIyWlLk6GJQsqaUBKTNV-1" vertex="1">
          <mxGeometry x="120" y="1000" width="480" height="40" as="geometry" />
        </mxCell>
        <mxCell id="k82GgRxIljFtlNBxgE6x-22" style="edgeStyle=orthogonalEdgeStyle;rounded=0;orthogonalLoop=1;jettySize=auto;html=1;" parent="WIyWlLk6GJQsqaUBKTNV-1" source="k82GgRxIljFtlNBxgE6x-11" target="k82GgRxIljFtlNBxgE6x-15" edge="1">
          <mxGeometry relative="1" as="geometry" />
        </mxCell>
        <mxCell id="k82GgRxIljFtlNBxgE6x-23" style="edgeStyle=orthogonalEdgeStyle;rounded=0;orthogonalLoop=1;jettySize=auto;html=1;" parent="WIyWlLk6GJQsqaUBKTNV-1" source="k82GgRxIljFtlNBxgE6x-11" target="k82GgRxIljFtlNBxgE6x-14" edge="1">
          <mxGeometry relative="1" as="geometry" />
        </mxCell>
        <mxCell id="k82GgRxIljFtlNBxgE6x-11" value="Squad AI" style="ellipse;shape=cloud;whiteSpace=wrap;html=1;" parent="WIyWlLk6GJQsqaUBKTNV-1" vertex="1">
          <mxGeometry x="882" y="600" width="160" height="80" as="geometry" />
        </mxCell>
        <mxCell id="k82GgRxIljFtlNBxgE6x-14" value="Monster AI" style="shape=card;whiteSpace=wrap;html=1;" parent="WIyWlLk6GJQsqaUBKTNV-1" vertex="1">
          <mxGeometry x="1042" y="760" width="80" height="80" as="geometry" />
        </mxCell>
        <mxCell id="k82GgRxIljFtlNBxgE6x-15" value="Monster AI" style="shape=card;whiteSpace=wrap;html=1;" parent="WIyWlLk6GJQsqaUBKTNV-1" vertex="1">
          <mxGeometry x="922" y="760" width="80" height="80" as="geometry" />
        </mxCell>
        <mxCell id="k82GgRxIljFtlNBxgE6x-20" value="" style="edgeStyle=orthogonalEdgeStyle;rounded=0;orthogonalLoop=1;jettySize=auto;html=1;" parent="WIyWlLk6GJQsqaUBKTNV-1" source="k82GgRxIljFtlNBxgE6x-16" target="k82GgRxIljFtlNBxgE6x-11" edge="1">
          <mxGeometry relative="1" as="geometry">
            <Array as="points">
              <mxPoint x="842" y="640" />
            </Array>
          </mxGeometry>
        </mxCell>
        <mxCell id="k82GgRxIljFtlNBxgE6x-16" value="Monster AI" style="shape=card;whiteSpace=wrap;html=1;" parent="WIyWlLk6GJQsqaUBKTNV-1" vertex="1">
          <mxGeometry x="802" y="760" width="80" height="80" as="geometry" />
        </mxCell>
        <mxCell id="k82GgRxIljFtlNBxgE6x-18" value="예상 흐름 파악" style="text;html=1;strokeColor=none;fillColor=none;align=left;verticalAlign=top;whiteSpace=wrap;rounded=0;fontStyle=1" parent="WIyWlLk6GJQsqaUBKTNV-1" vertex="1">
          <mxGeometry x="720" y="440" width="480" height="30" as="geometry" />
        </mxCell>
        <mxCell id="k82GgRxIljFtlNBxgE6x-19" value="1. 한 부대원이 적 식별&lt;br&gt;-&amp;gt; Squad AI에 식별 보고&lt;br&gt;-&amp;gt; Squad AI가 나머지 부대원들에게 식별 알림 전파" style="text;html=1;strokeColor=none;fillColor=none;align=left;verticalAlign=top;whiteSpace=wrap;rounded=0;fontStyle=1" parent="WIyWlLk6GJQsqaUBKTNV-1" vertex="1">
          <mxGeometry x="760" y="480" width="360" height="30" as="geometry" />
        </mxCell>
        <mxCell id="k82GgRxIljFtlNBxgE6x-21" value="1. [전투] 돌입" style="text;html=1;strokeColor=none;fillColor=none;align=center;verticalAlign=middle;whiteSpace=wrap;rounded=0;" parent="WIyWlLk6GJQsqaUBKTNV-1" vertex="1">
          <mxGeometry x="802" y="840" width="79" height="40" as="geometry" />
        </mxCell>
        <mxCell id="k82GgRxIljFtlNBxgE6x-24" value="2. 식별 알림" style="text;html=1;strokeColor=none;fillColor=none;align=center;verticalAlign=middle;whiteSpace=wrap;rounded=0;" parent="WIyWlLk6GJQsqaUBKTNV-1" vertex="1">
          <mxGeometry x="963" y="680" width="79" height="40" as="geometry" />
        </mxCell>
        <mxCell id="k82GgRxIljFtlNBxgE6x-25" value="1. 식별 보고" style="text;html=1;strokeColor=none;fillColor=none;align=center;verticalAlign=middle;whiteSpace=wrap;rounded=0;" parent="WIyWlLk6GJQsqaUBKTNV-1" vertex="1">
          <mxGeometry x="761" y="680" width="79" height="40" as="geometry" />
        </mxCell>
        <mxCell id="k82GgRxIljFtlNBxgE6x-26" value="2. [전투] 돌입" style="text;html=1;strokeColor=none;fillColor=none;align=center;verticalAlign=middle;whiteSpace=wrap;rounded=0;" parent="WIyWlLk6GJQsqaUBKTNV-1" vertex="1">
          <mxGeometry x="922" y="840" width="79" height="40" as="geometry" />
        </mxCell>
        <mxCell id="k82GgRxIljFtlNBxgE6x-27" value="2. [전투] 돌입" style="text;html=1;strokeColor=none;fillColor=none;align=center;verticalAlign=middle;whiteSpace=wrap;rounded=0;" parent="WIyWlLk6GJQsqaUBKTNV-1" vertex="1">
          <mxGeometry x="1042" y="840" width="79" height="40" as="geometry" />
        </mxCell>
        <mxCell id="k82GgRxIljFtlNBxgE6x-29" style="edgeStyle=orthogonalEdgeStyle;rounded=0;orthogonalLoop=1;jettySize=auto;html=1;" parent="WIyWlLk6GJQsqaUBKTNV-1" source="k82GgRxIljFtlNBxgE6x-30" target="k82GgRxIljFtlNBxgE6x-31" edge="1">
          <mxGeometry relative="1" as="geometry">
            <Array as="points">
              <mxPoint x="1520" y="640" />
            </Array>
          </mxGeometry>
        </mxCell>
        <mxCell id="k82GgRxIljFtlNBxgE6x-42" style="edgeStyle=orthogonalEdgeStyle;rounded=0;orthogonalLoop=1;jettySize=auto;html=1;" parent="WIyWlLk6GJQsqaUBKTNV-1" source="k82GgRxIljFtlNBxgE6x-30" target="k82GgRxIljFtlNBxgE6x-34" edge="1">
          <mxGeometry relative="1" as="geometry">
            <Array as="points">
              <mxPoint x="1280" y="640" />
            </Array>
          </mxGeometry>
        </mxCell>
        <mxCell id="k82GgRxIljFtlNBxgE6x-30" value="Squad AI" style="ellipse;shape=cloud;whiteSpace=wrap;html=1;" parent="WIyWlLk6GJQsqaUBKTNV-1" vertex="1">
          <mxGeometry x="1322" y="600" width="160" height="80" as="geometry" />
        </mxCell>
        <mxCell id="k82GgRxIljFtlNBxgE6x-31" value="Monster AI" style="shape=card;whiteSpace=wrap;html=1;" parent="WIyWlLk6GJQsqaUBKTNV-1" vertex="1">
          <mxGeometry x="1481" y="760" width="80" height="80" as="geometry" />
        </mxCell>
        <mxCell id="k82GgRxIljFtlNBxgE6x-41" style="edgeStyle=orthogonalEdgeStyle;rounded=0;orthogonalLoop=1;jettySize=auto;html=1;" parent="WIyWlLk6GJQsqaUBKTNV-1" source="k82GgRxIljFtlNBxgE6x-32" target="k82GgRxIljFtlNBxgE6x-30" edge="1">
          <mxGeometry relative="1" as="geometry" />
        </mxCell>
        <mxCell id="k82GgRxIljFtlNBxgE6x-32" value="Monster AI" style="shape=card;whiteSpace=wrap;html=1;" parent="WIyWlLk6GJQsqaUBKTNV-1" vertex="1">
          <mxGeometry x="1362" y="760" width="80" height="80" as="geometry" />
        </mxCell>
        <mxCell id="k82GgRxIljFtlNBxgE6x-34" value="Monster AI" style="shape=card;whiteSpace=wrap;html=1;" parent="WIyWlLk6GJQsqaUBKTNV-1" vertex="1">
          <mxGeometry x="1242" y="760" width="80" height="80" as="geometry" />
        </mxCell>
        <mxCell id="k82GgRxIljFtlNBxgE6x-35" value="2. 식별 지속 = 교전 지속&lt;br&gt;-&amp;gt; 특정 시간 안에 부대원 중 하나라도 식별&lt;br&gt;-&amp;gt; Squad AI의 식별 상태는 유지된다" style="text;html=1;strokeColor=none;fillColor=none;align=left;verticalAlign=top;whiteSpace=wrap;rounded=0;fontStyle=1" parent="WIyWlLk6GJQsqaUBKTNV-1" vertex="1">
          <mxGeometry x="1200" y="480" width="400" height="30" as="geometry" />
        </mxCell>
        <mxCell id="k82GgRxIljFtlNBxgE6x-36" value="2. [전투] 유지" style="text;html=1;strokeColor=none;fillColor=none;align=center;verticalAlign=middle;whiteSpace=wrap;rounded=0;" parent="WIyWlLk6GJQsqaUBKTNV-1" vertex="1">
          <mxGeometry x="1242" y="840" width="79" height="40" as="geometry" />
        </mxCell>
        <mxCell id="k82GgRxIljFtlNBxgE6x-37" value="2. 식별 알림" style="text;html=1;strokeColor=none;fillColor=none;align=center;verticalAlign=middle;whiteSpace=wrap;rounded=0;" parent="WIyWlLk6GJQsqaUBKTNV-1" vertex="1">
          <mxGeometry x="1521" y="640" width="79" height="40" as="geometry" />
        </mxCell>
        <mxCell id="k82GgRxIljFtlNBxgE6x-38" value="1. 식별 보고" style="text;html=1;strokeColor=none;fillColor=none;align=center;verticalAlign=middle;whiteSpace=wrap;rounded=0;" parent="WIyWlLk6GJQsqaUBKTNV-1" vertex="1">
          <mxGeometry x="1402" y="680" width="79" height="40" as="geometry" />
        </mxCell>
        <mxCell id="k82GgRxIljFtlNBxgE6x-39" value="1. [전투] 유지" style="text;html=1;strokeColor=none;fillColor=none;align=center;verticalAlign=middle;whiteSpace=wrap;rounded=0;" parent="WIyWlLk6GJQsqaUBKTNV-1" vertex="1">
          <mxGeometry x="1362" y="840" width="79" height="40" as="geometry" />
        </mxCell>
        <mxCell id="k82GgRxIljFtlNBxgE6x-40" value="2. [전투] 유지" style="text;html=1;strokeColor=none;fillColor=none;align=center;verticalAlign=middle;whiteSpace=wrap;rounded=0;" parent="WIyWlLk6GJQsqaUBKTNV-1" vertex="1">
          <mxGeometry x="1482" y="840" width="79" height="40" as="geometry" />
        </mxCell>
        <mxCell id="k82GgRxIljFtlNBxgE6x-43" value="2. 식별 알림" style="text;html=1;strokeColor=none;fillColor=none;align=center;verticalAlign=middle;whiteSpace=wrap;rounded=0;" parent="WIyWlLk6GJQsqaUBKTNV-1" vertex="1">
          <mxGeometry x="1201" y="640" width="79" height="40" as="geometry" />
        </mxCell>
        <mxCell id="k82GgRxIljFtlNBxgE6x-44" value="3. 식별 종료 = 교전 종료&lt;br&gt;-&amp;gt; 특정 시간 안에 부대원들중 아무도 식별을 못함&lt;br&gt;-&amp;gt; Squad AI의 식별상태는 종료된다" style="text;html=1;strokeColor=none;fillColor=none;align=left;verticalAlign=top;whiteSpace=wrap;rounded=0;fontStyle=1" parent="WIyWlLk6GJQsqaUBKTNV-1" vertex="1">
          <mxGeometry x="1680" y="480" width="400" height="30" as="geometry" />
        </mxCell>
        <mxCell id="k82GgRxIljFtlNBxgE6x-50" style="edgeStyle=orthogonalEdgeStyle;rounded=0;orthogonalLoop=1;jettySize=auto;html=1;" parent="WIyWlLk6GJQsqaUBKTNV-1" source="k82GgRxIljFtlNBxgE6x-45" target="k82GgRxIljFtlNBxgE6x-48" edge="1">
          <mxGeometry relative="1" as="geometry" />
        </mxCell>
        <mxCell id="k82GgRxIljFtlNBxgE6x-51" style="edgeStyle=orthogonalEdgeStyle;rounded=0;orthogonalLoop=1;jettySize=auto;html=1;" parent="WIyWlLk6GJQsqaUBKTNV-1" source="k82GgRxIljFtlNBxgE6x-45" target="k82GgRxIljFtlNBxgE6x-49" edge="1">
          <mxGeometry relative="1" as="geometry" />
        </mxCell>
        <mxCell id="k82GgRxIljFtlNBxgE6x-52" style="edgeStyle=orthogonalEdgeStyle;rounded=0;orthogonalLoop=1;jettySize=auto;html=1;" parent="WIyWlLk6GJQsqaUBKTNV-1" source="k82GgRxIljFtlNBxgE6x-45" target="k82GgRxIljFtlNBxgE6x-47" edge="1">
          <mxGeometry relative="1" as="geometry" />
        </mxCell>
        <mxCell id="k82GgRxIljFtlNBxgE6x-45" value="Squad AI" style="ellipse;shape=cloud;whiteSpace=wrap;html=1;" parent="WIyWlLk6GJQsqaUBKTNV-1" vertex="1">
          <mxGeometry x="1800" y="600" width="160" height="80" as="geometry" />
        </mxCell>
        <mxCell id="k82GgRxIljFtlNBxgE6x-46" value="1. 시간 n 동안&amp;nbsp;&lt;br&gt;추가적인 식별 없음" style="text;html=1;strokeColor=none;fillColor=none;align=center;verticalAlign=middle;whiteSpace=wrap;rounded=0;" parent="WIyWlLk6GJQsqaUBKTNV-1" vertex="1">
          <mxGeometry x="1800" y="560" width="160" height="40" as="geometry" />
        </mxCell>
        <mxCell id="k82GgRxIljFtlNBxgE6x-47" value="Monster AI" style="shape=card;whiteSpace=wrap;html=1;" parent="WIyWlLk6GJQsqaUBKTNV-1" vertex="1">
          <mxGeometry x="1959.5" y="760" width="80" height="80" as="geometry" />
        </mxCell>
        <mxCell id="k82GgRxIljFtlNBxgE6x-48" value="Monster AI" style="shape=card;whiteSpace=wrap;html=1;" parent="WIyWlLk6GJQsqaUBKTNV-1" vertex="1">
          <mxGeometry x="1840.5" y="760" width="80" height="80" as="geometry" />
        </mxCell>
        <mxCell id="k82GgRxIljFtlNBxgE6x-49" value="Monster AI" style="shape=card;whiteSpace=wrap;html=1;" parent="WIyWlLk6GJQsqaUBKTNV-1" vertex="1">
          <mxGeometry x="1720.5" y="760" width="80" height="80" as="geometry" />
        </mxCell>
        <mxCell id="k82GgRxIljFtlNBxgE6x-53" value="2. [전투] 종료 알림" style="text;html=1;strokeColor=none;fillColor=none;align=center;verticalAlign=middle;whiteSpace=wrap;rounded=0;" parent="WIyWlLk6GJQsqaUBKTNV-1" vertex="1">
          <mxGeometry x="1880.5" y="680" width="119.5" height="40" as="geometry" />
        </mxCell>
        <mxCell id="k82GgRxIljFtlNBxgE6x-55" value="3. [정찰] 복귀" style="text;html=1;strokeColor=none;fillColor=none;align=center;verticalAlign=middle;whiteSpace=wrap;rounded=0;" parent="WIyWlLk6GJQsqaUBKTNV-1" vertex="1">
          <mxGeometry x="1840.5" y="840" width="79" height="40" as="geometry" />
        </mxCell>
        <mxCell id="k82GgRxIljFtlNBxgE6x-58" value="3. [정찰] 복귀" style="text;html=1;strokeColor=none;fillColor=none;align=center;verticalAlign=middle;whiteSpace=wrap;rounded=0;" parent="WIyWlLk6GJQsqaUBKTNV-1" vertex="1">
          <mxGeometry x="1959.5" y="840" width="79" height="40" as="geometry" />
        </mxCell>
        <mxCell id="k82GgRxIljFtlNBxgE6x-59" value="3. [정찰] 복귀" style="text;html=1;strokeColor=none;fillColor=none;align=center;verticalAlign=middle;whiteSpace=wrap;rounded=0;" parent="WIyWlLk6GJQsqaUBKTNV-1" vertex="1">
          <mxGeometry x="1720.5" y="840" width="79" height="40" as="geometry" />
        </mxCell>
        <mxCell id="_hcauNm1a2GozjEKWb6C-15" style="edgeStyle=orthogonalEdgeStyle;rounded=0;orthogonalLoop=1;jettySize=auto;html=1;" parent="WIyWlLk6GJQsqaUBKTNV-1" source="_hcauNm1a2GozjEKWb6C-0" target="_hcauNm1a2GozjEKWb6C-13" edge="1">
          <mxGeometry relative="1" as="geometry" />
        </mxCell>
        <mxCell id="_hcauNm1a2GozjEKWb6C-16" style="edgeStyle=orthogonalEdgeStyle;rounded=0;orthogonalLoop=1;jettySize=auto;html=1;" parent="WIyWlLk6GJQsqaUBKTNV-1" source="_hcauNm1a2GozjEKWb6C-0" target="_hcauNm1a2GozjEKWb6C-10" edge="1">
          <mxGeometry relative="1" as="geometry" />
        </mxCell>
        <mxCell id="_hcauNm1a2GozjEKWb6C-17" style="edgeStyle=orthogonalEdgeStyle;rounded=0;orthogonalLoop=1;jettySize=auto;html=1;" parent="WIyWlLk6GJQsqaUBKTNV-1" source="_hcauNm1a2GozjEKWb6C-0" target="_hcauNm1a2GozjEKWb6C-14" edge="1">
          <mxGeometry relative="1" as="geometry">
            <Array as="points">
              <mxPoint x="910" y="1400" />
              <mxPoint x="1040" y="1400" />
            </Array>
          </mxGeometry>
        </mxCell>
        <mxCell id="_hcauNm1a2GozjEKWb6C-0" value="Squad AI" style="ellipse;shape=cloud;whiteSpace=wrap;html=1;" parent="WIyWlLk6GJQsqaUBKTNV-1" vertex="1">
          <mxGeometry x="830" y="1280" width="160" height="80" as="geometry" />
        </mxCell>
        <mxCell id="_hcauNm1a2GozjEKWb6C-1" value="AI 연결 형태" style="text;html=1;strokeColor=none;fillColor=none;align=left;verticalAlign=top;whiteSpace=wrap;rounded=0;fontStyle=1" parent="WIyWlLk6GJQsqaUBKTNV-1" vertex="1">
          <mxGeometry x="720" y="1040" width="480" height="30" as="geometry" />
        </mxCell>
        <mxCell id="_hcauNm1a2GozjEKWb6C-4" value="행동강령&lt;br&gt;AI" style="shape=card;whiteSpace=wrap;html=1;" parent="WIyWlLk6GJQsqaUBKTNV-1" vertex="1">
          <mxGeometry x="760" y="1120" width="80" height="80" as="geometry" />
        </mxCell>
        <mxCell id="_hcauNm1a2GozjEKWb6C-5" value="행동강령&lt;br&gt;AI" style="shape=card;whiteSpace=wrap;html=1;" parent="WIyWlLk6GJQsqaUBKTNV-1" vertex="1">
          <mxGeometry x="880" y="1120" width="80" height="80" as="geometry" />
        </mxCell>
        <mxCell id="_hcauNm1a2GozjEKWb6C-6" value="행동강령&lt;br&gt;AI" style="shape=card;whiteSpace=wrap;html=1;" parent="WIyWlLk6GJQsqaUBKTNV-1" vertex="1">
          <mxGeometry x="1000" y="1120" width="80" height="80" as="geometry" />
        </mxCell>
        <mxCell id="_hcauNm1a2GozjEKWb6C-10" value="부대원 AI" style="shape=card;whiteSpace=wrap;html=1;" parent="WIyWlLk6GJQsqaUBKTNV-1" vertex="1">
          <mxGeometry x="760" y="1440" width="80" height="80" as="geometry" />
        </mxCell>
        <mxCell id="_hcauNm1a2GozjEKWb6C-13" value="부대원 AI" style="shape=card;whiteSpace=wrap;html=1;" parent="WIyWlLk6GJQsqaUBKTNV-1" vertex="1">
          <mxGeometry x="880" y="1440" width="80" height="80" as="geometry" />
        </mxCell>
        <mxCell id="_hcauNm1a2GozjEKWb6C-14" value="부대원 AI" style="shape=card;whiteSpace=wrap;html=1;" parent="WIyWlLk6GJQsqaUBKTNV-1" vertex="1">
          <mxGeometry x="1000" y="1440" width="80" height="80" as="geometry" />
        </mxCell>
        <mxCell id="_hcauNm1a2GozjEKWb6C-19" value="명령 할당" style="text;html=1;align=center;verticalAlign=middle;resizable=0;points=[];autosize=1;strokeColor=none;fillColor=none;" parent="WIyWlLk6GJQsqaUBKTNV-1" vertex="1">
          <mxGeometry x="940" y="1360" width="70" height="30" as="geometry" />
        </mxCell>
        <mxCell id="gmV4UiuBcHdkKqVlCbxy-0" value="식별 상태&lt;br&gt;bool" style="text;html=1;strokeColor=none;fillColor=none;align=center;verticalAlign=middle;whiteSpace=wrap;rounded=0;" parent="WIyWlLk6GJQsqaUBKTNV-1" vertex="1">
          <mxGeometry x="1000" y="1280" width="60" height="30" as="geometry" />
        </mxCell>
      </root>
    </mxGraphModel>
  </diagram>
  <diagram id="eqI9bAdG9hZZr8Fcut0Q" name="Base Controller">
    <mxGraphModel dx="1434" dy="908" grid="1" gridSize="10" guides="1" tooltips="1" connect="1" arrows="1" fold="1" page="1" pageScale="1" pageWidth="827" pageHeight="1169" math="0" shadow="0">
      <root>
        <mxCell id="0" />
        <mxCell id="1" parent="0" />
        <mxCell id="TJ9qenZeEfIf-el6Gb83-1" value="Base Controller&lt;br&gt;모든 단순 행동은 여기에서 이루어진다" style="text;html=1;strokeColor=none;fillColor=none;align=left;verticalAlign=top;whiteSpace=wrap;rounded=0;fontStyle=1" parent="1" vertex="1">
          <mxGeometry x="40" y="40" width="480" height="30" as="geometry" />
        </mxCell>
        <mxCell id="SINc8TxiwBf4O8KPSoPl-1" style="edgeStyle=orthogonalEdgeStyle;rounded=0;orthogonalLoop=1;jettySize=auto;html=1;" parent="1" source="fTsHDetYLLLhsTVryc_a-1" target="9iycuVBc_7BSafbmRUpz-1" edge="1">
          <mxGeometry relative="1" as="geometry" />
        </mxCell>
        <mxCell id="fTsHDetYLLLhsTVryc_a-1" value="AI 시작" style="rounded=1;whiteSpace=wrap;html=1;" parent="1" vertex="1">
          <mxGeometry x="39.999999999999545" y="120" width="160" height="80" as="geometry" />
        </mxCell>
        <mxCell id="9iycuVBc_7BSafbmRUpz-1" value="Update" style="swimlane;whiteSpace=wrap;html=1;" parent="1" vertex="1">
          <mxGeometry x="240" y="120" width="1120" height="1210" as="geometry" />
        </mxCell>
        <mxCell id="XWwUNBCg_DzUVFDr8ZjC-7" value="" style="edgeStyle=orthogonalEdgeStyle;rounded=0;orthogonalLoop=1;jettySize=auto;html=1;" parent="9iycuVBc_7BSafbmRUpz-1" source="Ev9piFK8nZ_-OeGsPjmd-1" target="XWwUNBCg_DzUVFDr8ZjC-14" edge="1">
          <mxGeometry relative="1" as="geometry">
            <mxPoint x="335" y="320" as="targetPoint" />
          </mxGeometry>
        </mxCell>
        <mxCell id="XWwUNBCg_DzUVFDr8ZjC-23" value="YES" style="edgeStyle=orthogonalEdgeStyle;rounded=0;orthogonalLoop=1;jettySize=auto;html=1;" parent="9iycuVBc_7BSafbmRUpz-1" source="Ev9piFK8nZ_-OeGsPjmd-1" target="XWwUNBCg_DzUVFDr8ZjC-20" edge="1">
          <mxGeometry x="-0.803" relative="1" as="geometry">
            <Array as="points">
              <mxPoint x="40" y="280" />
              <mxPoint x="40" y="1080" />
            </Array>
            <mxPoint as="offset" />
          </mxGeometry>
        </mxCell>
        <mxCell id="XWwUNBCg_DzUVFDr8ZjC-31" value="NO" style="edgeStyle=orthogonalEdgeStyle;rounded=0;orthogonalLoop=1;jettySize=auto;html=1;" parent="9iycuVBc_7BSafbmRUpz-1" source="Ev9piFK8nZ_-OeGsPjmd-1" target="XWwUNBCg_DzUVFDr8ZjC-27" edge="1">
          <mxGeometry x="-0.8125" y="20" relative="1" as="geometry">
            <Array as="points">
              <mxPoint x="160" y="400" />
              <mxPoint x="720" y="400" />
            </Array>
            <mxPoint as="offset" />
          </mxGeometry>
        </mxCell>
        <mxCell id="Ev9piFK8nZ_-OeGsPjmd-1" value="일시정지가 걸렸나?" style="rhombus;whiteSpace=wrap;html=1;" parent="9iycuVBc_7BSafbmRUpz-1" vertex="1">
          <mxGeometry x="79.99999999999955" y="200" width="160" height="160" as="geometry" />
        </mxCell>
        <mxCell id="XWwUNBCg_DzUVFDr8ZjC-16" value="YES" style="edgeStyle=orthogonalEdgeStyle;rounded=0;orthogonalLoop=1;jettySize=auto;html=1;" parent="9iycuVBc_7BSafbmRUpz-1" source="XWwUNBCg_DzUVFDr8ZjC-14" target="XWwUNBCg_DzUVFDr8ZjC-15" edge="1">
          <mxGeometry relative="1" as="geometry" />
        </mxCell>
        <mxCell id="XWwUNBCg_DzUVFDr8ZjC-24" value="NO" style="edgeStyle=orthogonalEdgeStyle;rounded=0;orthogonalLoop=1;jettySize=auto;html=1;" parent="9iycuVBc_7BSafbmRUpz-1" source="XWwUNBCg_DzUVFDr8ZjC-14" target="XWwUNBCg_DzUVFDr8ZjC-20" edge="1">
          <mxGeometry x="-0.7593" y="10" relative="1" as="geometry">
            <mxPoint as="offset" />
          </mxGeometry>
        </mxCell>
        <mxCell id="XWwUNBCg_DzUVFDr8ZjC-14" value="이동할 목표가 있나?" style="rhombus;whiteSpace=wrap;html=1;" parent="9iycuVBc_7BSafbmRUpz-1" vertex="1">
          <mxGeometry x="79.99999999999955" y="440" width="160" height="160" as="geometry" />
        </mxCell>
        <mxCell id="XWwUNBCg_DzUVFDr8ZjC-17" value="NO" style="edgeStyle=orthogonalEdgeStyle;rounded=0;orthogonalLoop=1;jettySize=auto;html=1;" parent="9iycuVBc_7BSafbmRUpz-1" source="XWwUNBCg_DzUVFDr8ZjC-15" target="XWwUNBCg_DzUVFDr8ZjC-12" edge="1">
          <mxGeometry relative="1" as="geometry" />
        </mxCell>
        <mxCell id="XWwUNBCg_DzUVFDr8ZjC-25" value="YES" style="edgeStyle=orthogonalEdgeStyle;rounded=0;orthogonalLoop=1;jettySize=auto;html=1;" parent="9iycuVBc_7BSafbmRUpz-1" source="XWwUNBCg_DzUVFDr8ZjC-15" target="XWwUNBCg_DzUVFDr8ZjC-22" edge="1">
          <mxGeometry relative="1" as="geometry" />
        </mxCell>
        <mxCell id="XWwUNBCg_DzUVFDr8ZjC-15" value="도착했나?" style="rhombus;whiteSpace=wrap;html=1;" parent="9iycuVBc_7BSafbmRUpz-1" vertex="1">
          <mxGeometry x="79.99999999999955" y="680" width="160" height="160" as="geometry" />
        </mxCell>
        <mxCell id="XWwUNBCg_DzUVFDr8ZjC-21" style="edgeStyle=orthogonalEdgeStyle;rounded=0;orthogonalLoop=1;jettySize=auto;html=1;" parent="9iycuVBc_7BSafbmRUpz-1" source="XWwUNBCg_DzUVFDr8ZjC-12" target="XWwUNBCg_DzUVFDr8ZjC-20" edge="1">
          <mxGeometry relative="1" as="geometry">
            <Array as="points">
              <mxPoint x="160" y="1050" />
            </Array>
          </mxGeometry>
        </mxCell>
        <mxCell id="XWwUNBCg_DzUVFDr8ZjC-12" value="해당 목표 방향으로 &lt;br&gt;velocity 주기&lt;br&gt;= 살짝 이동" style="whiteSpace=wrap;html=1;" parent="9iycuVBc_7BSafbmRUpz-1" vertex="1">
          <mxGeometry x="80" y="920" width="160" height="80" as="geometry" />
        </mxCell>
        <mxCell id="XWwUNBCg_DzUVFDr8ZjC-19" style="edgeStyle=orthogonalEdgeStyle;rounded=0;orthogonalLoop=1;jettySize=auto;html=1;" parent="9iycuVBc_7BSafbmRUpz-1" source="XWwUNBCg_DzUVFDr8ZjC-18" target="Ev9piFK8nZ_-OeGsPjmd-1" edge="1">
          <mxGeometry relative="1" as="geometry" />
        </mxCell>
        <mxCell id="XWwUNBCg_DzUVFDr8ZjC-18" value="Update 문 시작" style="rounded=1;whiteSpace=wrap;html=1;" parent="9iycuVBc_7BSafbmRUpz-1" vertex="1">
          <mxGeometry x="79.99999999999955" y="40" width="160" height="80" as="geometry" />
        </mxCell>
        <mxCell id="XWwUNBCg_DzUVFDr8ZjC-20" value="Update 문 종료" style="rounded=1;whiteSpace=wrap;html=1;" parent="9iycuVBc_7BSafbmRUpz-1" vertex="1">
          <mxGeometry x="479.99999999999955" y="1040" width="160" height="80" as="geometry" />
        </mxCell>
        <mxCell id="XWwUNBCg_DzUVFDr8ZjC-26" style="edgeStyle=orthogonalEdgeStyle;rounded=0;orthogonalLoop=1;jettySize=auto;html=1;" parent="9iycuVBc_7BSafbmRUpz-1" source="XWwUNBCg_DzUVFDr8ZjC-22" target="XWwUNBCg_DzUVFDr8ZjC-20" edge="1">
          <mxGeometry relative="1" as="geometry">
            <Array as="points">
              <mxPoint x="400" y="920" />
              <mxPoint x="520" y="920" />
            </Array>
          </mxGeometry>
        </mxCell>
        <mxCell id="XWwUNBCg_DzUVFDr8ZjC-22" value="목표 초기화&lt;br&gt;velocity 초기화&lt;br&gt;= 이동 멈추기" style="whiteSpace=wrap;html=1;" parent="9iycuVBc_7BSafbmRUpz-1" vertex="1">
          <mxGeometry x="320" y="720" width="160" height="80" as="geometry" />
        </mxCell>
        <mxCell id="XWwUNBCg_DzUVFDr8ZjC-32" value="YES" style="edgeStyle=orthogonalEdgeStyle;rounded=0;orthogonalLoop=1;jettySize=auto;html=1;" parent="9iycuVBc_7BSafbmRUpz-1" source="XWwUNBCg_DzUVFDr8ZjC-27" target="XWwUNBCg_DzUVFDr8ZjC-28" edge="1">
          <mxGeometry relative="1" as="geometry" />
        </mxCell>
        <mxCell id="XWwUNBCg_DzUVFDr8ZjC-33" value="NO" style="edgeStyle=orthogonalEdgeStyle;rounded=0;orthogonalLoop=1;jettySize=auto;html=1;" parent="9iycuVBc_7BSafbmRUpz-1" source="XWwUNBCg_DzUVFDr8ZjC-27" target="XWwUNBCg_DzUVFDr8ZjC-20" edge="1">
          <mxGeometry relative="1" as="geometry">
            <Array as="points">
              <mxPoint x="600" y="520" />
            </Array>
          </mxGeometry>
        </mxCell>
        <mxCell id="XWwUNBCg_DzUVFDr8ZjC-27" value="응시할 목표가 있나?" style="rhombus;whiteSpace=wrap;html=1;" parent="9iycuVBc_7BSafbmRUpz-1" vertex="1">
          <mxGeometry x="639.9999999999995" y="440" width="160" height="160" as="geometry" />
        </mxCell>
        <mxCell id="XWwUNBCg_DzUVFDr8ZjC-34" value="NO" style="edgeStyle=orthogonalEdgeStyle;rounded=0;orthogonalLoop=1;jettySize=auto;html=1;" parent="9iycuVBc_7BSafbmRUpz-1" source="XWwUNBCg_DzUVFDr8ZjC-28" target="XWwUNBCg_DzUVFDr8ZjC-29" edge="1">
          <mxGeometry relative="1" as="geometry" />
        </mxCell>
        <mxCell id="XWwUNBCg_DzUVFDr8ZjC-37" value="YES" style="edgeStyle=orthogonalEdgeStyle;rounded=0;orthogonalLoop=1;jettySize=auto;html=1;" parent="9iycuVBc_7BSafbmRUpz-1" source="XWwUNBCg_DzUVFDr8ZjC-28" target="XWwUNBCg_DzUVFDr8ZjC-30" edge="1">
          <mxGeometry relative="1" as="geometry" />
        </mxCell>
        <mxCell id="XWwUNBCg_DzUVFDr8ZjC-28" value="딱 바라보고있나?" style="rhombus;whiteSpace=wrap;html=1;" parent="9iycuVBc_7BSafbmRUpz-1" vertex="1">
          <mxGeometry x="639.9999999999995" y="680" width="160" height="160" as="geometry" />
        </mxCell>
        <mxCell id="XWwUNBCg_DzUVFDr8ZjC-36" style="edgeStyle=orthogonalEdgeStyle;rounded=0;orthogonalLoop=1;jettySize=auto;html=1;" parent="9iycuVBc_7BSafbmRUpz-1" source="XWwUNBCg_DzUVFDr8ZjC-29" target="XWwUNBCg_DzUVFDr8ZjC-20" edge="1">
          <mxGeometry relative="1" as="geometry">
            <Array as="points">
              <mxPoint x="720" y="1050" />
            </Array>
          </mxGeometry>
        </mxCell>
        <mxCell id="XWwUNBCg_DzUVFDr8ZjC-29" value="해당 목표 방향으로 &lt;br&gt;1도 회전" style="whiteSpace=wrap;html=1;" parent="9iycuVBc_7BSafbmRUpz-1" vertex="1">
          <mxGeometry x="640" y="920" width="160" height="80" as="geometry" />
        </mxCell>
        <mxCell id="XWwUNBCg_DzUVFDr8ZjC-38" style="edgeStyle=orthogonalEdgeStyle;rounded=0;orthogonalLoop=1;jettySize=auto;html=1;" parent="9iycuVBc_7BSafbmRUpz-1" source="XWwUNBCg_DzUVFDr8ZjC-30" target="XWwUNBCg_DzUVFDr8ZjC-20" edge="1">
          <mxGeometry relative="1" as="geometry">
            <Array as="points">
              <mxPoint x="960" y="1080" />
            </Array>
          </mxGeometry>
        </mxCell>
        <mxCell id="XWwUNBCg_DzUVFDr8ZjC-30" value="목표 초기화&lt;br&gt;= 회전 멈추기" style="whiteSpace=wrap;html=1;" parent="9iycuVBc_7BSafbmRUpz-1" vertex="1">
          <mxGeometry x="880" y="720" width="160" height="80" as="geometry" />
        </mxCell>
      </root>
    </mxGraphModel>
  </diagram>
  <diagram id="VFA0t5TRdixJ3i0WqsU3" name="Squad Base Controller">
    <mxGraphModel dx="1434" dy="908" grid="1" gridSize="10" guides="1" tooltips="1" connect="1" arrows="1" fold="1" page="1" pageScale="1" pageWidth="827" pageHeight="1169" math="0" shadow="0">
      <root>
        <mxCell id="0" />
        <mxCell id="1" parent="0" />
        <mxCell id="7WivHo9hzr1YOeG2T3vL-1" value="부대원들의 기본 위치를 가진다" style="text;html=1;strokeColor=none;fillColor=none;align=left;verticalAlign=top;whiteSpace=wrap;rounded=0;fontStyle=1" parent="1" vertex="1">
          <mxGeometry x="40" y="40" width="480" height="30" as="geometry" />
        </mxCell>
        <mxCell id="7WivHo9hzr1YOeG2T3vL-3" value="몬스터의 종류를 크게 세가지로 나눈다&lt;br&gt;1. 탱커, 2. 브루저, 3. 원거리" style="text;html=1;strokeColor=none;fillColor=none;align=left;verticalAlign=top;whiteSpace=wrap;rounded=0;fontStyle=1" parent="1" vertex="1">
          <mxGeometry x="80" y="80" width="480" height="30" as="geometry" />
        </mxCell>
        <mxCell id="7WivHo9hzr1YOeG2T3vL-5" value="" style="endArrow=classic;html=1;rounded=0;" parent="1" edge="1">
          <mxGeometry width="50" height="50" relative="1" as="geometry">
            <mxPoint x="120" y="360" as="sourcePoint" />
            <mxPoint x="280.25" y="360" as="targetPoint" />
          </mxGeometry>
        </mxCell>
        <mxCell id="7WivHo9hzr1YOeG2T3vL-12" value="몬스터는 그 종류에 따라 기본위치를 순차적으로 가진다" style="text;html=1;strokeColor=none;fillColor=none;align=left;verticalAlign=top;whiteSpace=wrap;rounded=0;fontStyle=1" parent="1" vertex="1">
          <mxGeometry x="80" y="160" width="480" height="30" as="geometry" />
        </mxCell>
        <mxCell id="7WivHo9hzr1YOeG2T3vL-19" value="한 부대는 각 종류 별 몬스터를 최대 5마리 가질 수 있다" style="text;html=1;strokeColor=none;fillColor=none;align=left;verticalAlign=top;whiteSpace=wrap;rounded=0;fontStyle=1" parent="1" vertex="1">
          <mxGeometry x="80" y="120" width="480" height="30" as="geometry" />
        </mxCell>
        <mxCell id="7WivHo9hzr1YOeG2T3vL-20" value="탱커" style="ellipse;whiteSpace=wrap;html=1;aspect=fixed;fillColor=#dae8fc;strokeColor=#6c8ebf;fillStyle=hatch;" parent="1" vertex="1">
          <mxGeometry x="260" y="280" width="40" height="40" as="geometry" />
        </mxCell>
        <mxCell id="7WivHo9hzr1YOeG2T3vL-21" value="브루저" style="ellipse;whiteSpace=wrap;html=1;aspect=fixed;fillColor=#fff2cc;strokeColor=#d6b656;fillStyle=hatch;" parent="1" vertex="1">
          <mxGeometry x="180" y="280" width="40" height="40" as="geometry" />
        </mxCell>
        <mxCell id="7WivHo9hzr1YOeG2T3vL-22" value="원거리" style="ellipse;whiteSpace=wrap;html=1;aspect=fixed;fillColor=#f8cecc;strokeColor=#b85450;fillStyle=hatch;" parent="1" vertex="1">
          <mxGeometry x="100" y="280" width="40" height="40" as="geometry" />
        </mxCell>
        <mxCell id="7WivHo9hzr1YOeG2T3vL-38" value="예시: 2 탱커 1 브루저 2 원딜" style="text;html=1;strokeColor=none;fillColor=none;align=left;verticalAlign=top;whiteSpace=wrap;rounded=0;fontStyle=1" parent="1" vertex="1">
          <mxGeometry x="400" y="280" width="200" height="30" as="geometry" />
        </mxCell>
        <mxCell id="7WivHo9hzr1YOeG2T3vL-46" value="원점" style="rhombus;whiteSpace=wrap;html=1;fillStyle=hatch;fillColor=#f8cecc;strokeColor=#b85450;" parent="1" vertex="1">
          <mxGeometry x="180" y="560" width="40" height="40" as="geometry" />
        </mxCell>
        <mxCell id="7WivHo9hzr1YOeG2T3vL-47" value="0" style="ellipse;whiteSpace=wrap;html=1;aspect=fixed;fillColor=#dae8fc;strokeColor=#6c8ebf;fillStyle=hatch;" parent="1" vertex="1">
          <mxGeometry x="280" y="560" width="40" height="40" as="geometry" />
        </mxCell>
        <mxCell id="7WivHo9hzr1YOeG2T3vL-48" value="1" style="ellipse;whiteSpace=wrap;html=1;aspect=fixed;fillColor=#dae8fc;strokeColor=#6c8ebf;fillStyle=hatch;" parent="1" vertex="1">
          <mxGeometry x="260" y="480" width="40" height="40" as="geometry" />
        </mxCell>
        <mxCell id="7WivHo9hzr1YOeG2T3vL-49" value="2" style="ellipse;whiteSpace=wrap;html=1;aspect=fixed;fillColor=#dae8fc;strokeColor=#6c8ebf;fillStyle=hatch;" parent="1" vertex="1">
          <mxGeometry x="260" y="640" width="40" height="40" as="geometry" />
        </mxCell>
        <mxCell id="7WivHo9hzr1YOeG2T3vL-50" value="3" style="ellipse;whiteSpace=wrap;html=1;aspect=fixed;fillColor=#dae8fc;strokeColor=#6c8ebf;fillStyle=hatch;" parent="1" vertex="1">
          <mxGeometry x="220" y="720" width="40" height="40" as="geometry" />
        </mxCell>
        <mxCell id="7WivHo9hzr1YOeG2T3vL-51" value="4" style="ellipse;whiteSpace=wrap;html=1;aspect=fixed;fillColor=#dae8fc;strokeColor=#6c8ebf;fillStyle=hatch;" parent="1" vertex="1">
          <mxGeometry x="220" y="400" width="40" height="40" as="geometry" />
        </mxCell>
        <mxCell id="7WivHo9hzr1YOeG2T3vL-52" value="0" style="ellipse;whiteSpace=wrap;html=1;aspect=fixed;fillColor=#fff2cc;strokeColor=#d6b656;fillStyle=hatch;" parent="1" vertex="1">
          <mxGeometry x="180" y="620" width="40" height="40" as="geometry" />
        </mxCell>
        <mxCell id="7WivHo9hzr1YOeG2T3vL-53" value="1" style="ellipse;whiteSpace=wrap;html=1;aspect=fixed;fillColor=#fff2cc;strokeColor=#d6b656;fillStyle=hatch;" parent="1" vertex="1">
          <mxGeometry x="180" y="500" width="40" height="40" as="geometry" />
        </mxCell>
        <mxCell id="7WivHo9hzr1YOeG2T3vL-54" value="2" style="ellipse;whiteSpace=wrap;html=1;aspect=fixed;fillColor=#fff2cc;strokeColor=#d6b656;fillStyle=hatch;" parent="1" vertex="1">
          <mxGeometry x="180" y="700" width="40" height="40" as="geometry" />
        </mxCell>
        <mxCell id="7WivHo9hzr1YOeG2T3vL-55" value="3" style="ellipse;whiteSpace=wrap;html=1;aspect=fixed;fillColor=#fff2cc;strokeColor=#d6b656;fillStyle=hatch;" parent="1" vertex="1">
          <mxGeometry x="180" y="420" width="40" height="40" as="geometry" />
        </mxCell>
        <mxCell id="7WivHo9hzr1YOeG2T3vL-56" value="4" style="ellipse;whiteSpace=wrap;html=1;aspect=fixed;fillColor=#fff2cc;strokeColor=#d6b656;fillStyle=hatch;" parent="1" vertex="1">
          <mxGeometry x="220" y="560" width="40" height="40" as="geometry" />
        </mxCell>
        <mxCell id="7WivHo9hzr1YOeG2T3vL-57" value="0" style="ellipse;whiteSpace=wrap;html=1;aspect=fixed;fillColor=#f8cecc;strokeColor=#b85450;fillStyle=hatch;" parent="1" vertex="1">
          <mxGeometry x="100" y="560" width="40" height="40" as="geometry" />
        </mxCell>
        <mxCell id="7WivHo9hzr1YOeG2T3vL-58" value="1" style="ellipse;whiteSpace=wrap;html=1;aspect=fixed;fillColor=#f8cecc;strokeColor=#b85450;fillStyle=hatch;" parent="1" vertex="1">
          <mxGeometry x="100" y="480" width="40" height="40" as="geometry" />
        </mxCell>
        <mxCell id="7WivHo9hzr1YOeG2T3vL-59" value="2" style="ellipse;whiteSpace=wrap;html=1;aspect=fixed;fillColor=#f8cecc;strokeColor=#b85450;fillStyle=hatch;" parent="1" vertex="1">
          <mxGeometry x="100" y="640" width="40" height="40" as="geometry" />
        </mxCell>
        <mxCell id="7WivHo9hzr1YOeG2T3vL-60" value="3" style="ellipse;whiteSpace=wrap;html=1;aspect=fixed;fillColor=#f8cecc;strokeColor=#b85450;fillStyle=hatch;" parent="1" vertex="1">
          <mxGeometry x="100" y="400" width="40" height="40" as="geometry" />
        </mxCell>
        <mxCell id="7WivHo9hzr1YOeG2T3vL-61" value="4" style="ellipse;whiteSpace=wrap;html=1;aspect=fixed;fillColor=#f8cecc;strokeColor=#b85450;fillStyle=hatch;" parent="1" vertex="1">
          <mxGeometry x="100" y="720" width="40" height="40" as="geometry" />
        </mxCell>
        <mxCell id="7WivHo9hzr1YOeG2T3vL-62" value="" style="endArrow=classic;html=1;rounded=0;" parent="1" edge="1">
          <mxGeometry width="50" height="50" relative="1" as="geometry">
            <mxPoint x="420" y="360" as="sourcePoint" />
            <mxPoint x="580.25" y="360" as="targetPoint" />
          </mxGeometry>
        </mxCell>
        <mxCell id="7WivHo9hzr1YOeG2T3vL-63" value="원점" style="rhombus;whiteSpace=wrap;html=1;fillStyle=hatch;fillColor=#f8cecc;strokeColor=#b85450;" parent="1" vertex="1">
          <mxGeometry x="480" y="560" width="40" height="40" as="geometry" />
        </mxCell>
        <mxCell id="7WivHo9hzr1YOeG2T3vL-64" value="0" style="ellipse;whiteSpace=wrap;html=1;aspect=fixed;fillColor=#f8cecc;strokeColor=#b85450;fillStyle=hatch;" parent="1" vertex="1">
          <mxGeometry x="400" y="560" width="40" height="40" as="geometry" />
        </mxCell>
        <mxCell id="7WivHo9hzr1YOeG2T3vL-65" value="1" style="ellipse;whiteSpace=wrap;html=1;aspect=fixed;fillColor=#f8cecc;strokeColor=#b85450;fillStyle=hatch;" parent="1" vertex="1">
          <mxGeometry x="400" y="480" width="40" height="40" as="geometry" />
        </mxCell>
        <mxCell id="7WivHo9hzr1YOeG2T3vL-66" value="0" style="ellipse;whiteSpace=wrap;html=1;aspect=fixed;fillColor=#fff2cc;strokeColor=#d6b656;fillStyle=hatch;" parent="1" vertex="1">
          <mxGeometry x="480" y="620" width="40" height="40" as="geometry" />
        </mxCell>
        <mxCell id="7WivHo9hzr1YOeG2T3vL-67" value="0" style="ellipse;whiteSpace=wrap;html=1;aspect=fixed;fillColor=#dae8fc;strokeColor=#6c8ebf;fillStyle=hatch;" parent="1" vertex="1">
          <mxGeometry x="580" y="560" width="40" height="40" as="geometry" />
        </mxCell>
        <mxCell id="7WivHo9hzr1YOeG2T3vL-68" value="1" style="ellipse;whiteSpace=wrap;html=1;aspect=fixed;fillColor=#dae8fc;strokeColor=#6c8ebf;fillStyle=hatch;" parent="1" vertex="1">
          <mxGeometry x="560" y="480" width="40" height="40" as="geometry" />
        </mxCell>
      </root>
    </mxGraphModel>
  </diagram>
  <diagram id="DOgEQAtghdoDgXmD8G_H" name="++ Base Controller">
    <mxGraphModel dx="1434" dy="2077" grid="1" gridSize="10" guides="1" tooltips="1" connect="1" arrows="1" fold="1" page="1" pageScale="1" pageWidth="827" pageHeight="1169" math="0" shadow="0">
      <root>
        <mxCell id="0" />
        <mxCell id="1" parent="0" />
        <mxCell id="cPjgWKXcVKDlL4nAaIzQ-1" value="기본적인 이동 시퀀스" style="text;html=1;strokeColor=none;fillColor=none;align=left;verticalAlign=top;whiteSpace=wrap;rounded=0;fontStyle=1" parent="1" vertex="1">
          <mxGeometry x="40" y="40" width="480" height="30" as="geometry" />
        </mxCell>
        <mxCell id="4FDPaVWrBTyIGpMvoPWC-1" value="기본적인 이동을 위한 시퀀스이다." style="text;html=1;strokeColor=none;fillColor=none;align=left;verticalAlign=top;whiteSpace=wrap;rounded=0;fontStyle=1" parent="1" vertex="1">
          <mxGeometry x="80" y="80" width="480" height="30" as="geometry" />
        </mxCell>
        <mxCell id="YCZqkkKsG8R1EkPZcTYx-3" style="edgeStyle=orthogonalEdgeStyle;rounded=0;orthogonalLoop=1;jettySize=auto;html=1;" edge="1" parent="1" source="YCZqkkKsG8R1EkPZcTYx-1" target="YCZqkkKsG8R1EkPZcTYx-2">
          <mxGeometry relative="1" as="geometry" />
        </mxCell>
        <mxCell id="YCZqkkKsG8R1EkPZcTYx-1" value="[전투] 상태 시작" style="rounded=1;whiteSpace=wrap;html=1;" vertex="1" parent="1">
          <mxGeometry x="561" y="-440" width="120" height="60" as="geometry" />
        </mxCell>
        <mxCell id="FCVZW7Y01I-0_65f3MMz-44" value="" style="edgeStyle=orthogonalEdgeStyle;rounded=0;orthogonalLoop=1;jettySize=auto;html=1;" edge="1" parent="1" source="YCZqkkKsG8R1EkPZcTYx-2" target="FCVZW7Y01I-0_65f3MMz-43">
          <mxGeometry relative="1" as="geometry" />
        </mxCell>
        <mxCell id="YCZqkkKsG8R1EkPZcTYx-2" value="전달받음:&lt;br&gt;현재 타겟 위치" style="rounded=0;whiteSpace=wrap;html=1;" vertex="1" parent="1">
          <mxGeometry x="761" y="-440" width="120" height="60" as="geometry" />
        </mxCell>
        <mxCell id="YCZqkkKsG8R1EkPZcTYx-4" value="Update 함수" style="swimlane;whiteSpace=wrap;html=1;" vertex="1" parent="1">
          <mxGeometry x="561" y="-320" width="1119" height="680" as="geometry" />
        </mxCell>
        <mxCell id="FCVZW7Y01I-0_65f3MMz-15" style="edgeStyle=orthogonalEdgeStyle;rounded=0;orthogonalLoop=1;jettySize=auto;html=1;" edge="1" parent="YCZqkkKsG8R1EkPZcTYx-4" source="FCVZW7Y01I-0_65f3MMz-5" target="FCVZW7Y01I-0_65f3MMz-14">
          <mxGeometry relative="1" as="geometry" />
        </mxCell>
        <mxCell id="FCVZW7Y01I-0_65f3MMz-5" value="Update 시작" style="rounded=1;whiteSpace=wrap;html=1;" vertex="1" parent="YCZqkkKsG8R1EkPZcTYx-4">
          <mxGeometry x="40" y="40" width="120" height="60" as="geometry" />
        </mxCell>
        <mxCell id="FCVZW7Y01I-0_65f3MMz-33" value="YES" style="edgeStyle=orthogonalEdgeStyle;rounded=0;orthogonalLoop=1;jettySize=auto;html=1;" edge="1" parent="YCZqkkKsG8R1EkPZcTYx-4" source="FCVZW7Y01I-0_65f3MMz-14" target="FCVZW7Y01I-0_65f3MMz-31">
          <mxGeometry relative="1" as="geometry">
            <Array as="points">
              <mxPoint x="300" y="600" />
            </Array>
          </mxGeometry>
        </mxCell>
        <mxCell id="FCVZW7Y01I-0_65f3MMz-48" value="NO" style="edgeStyle=orthogonalEdgeStyle;rounded=0;orthogonalLoop=1;jettySize=auto;html=1;" edge="1" parent="YCZqkkKsG8R1EkPZcTYx-4" source="FCVZW7Y01I-0_65f3MMz-14" target="FCVZW7Y01I-0_65f3MMz-47">
          <mxGeometry relative="1" as="geometry" />
        </mxCell>
        <mxCell id="FCVZW7Y01I-0_65f3MMz-14" value="조준중인가?&lt;br&gt;조준 타이머 &amp;gt; 0?" style="rhombus;whiteSpace=wrap;html=1;" vertex="1" parent="YCZqkkKsG8R1EkPZcTYx-4">
          <mxGeometry x="240" y="40" width="120" height="120" as="geometry" />
        </mxCell>
        <mxCell id="FCVZW7Y01I-0_65f3MMz-32" style="edgeStyle=orthogonalEdgeStyle;rounded=0;orthogonalLoop=1;jettySize=auto;html=1;" edge="1" parent="YCZqkkKsG8R1EkPZcTYx-4" source="FCVZW7Y01I-0_65f3MMz-29" target="FCVZW7Y01I-0_65f3MMz-31">
          <mxGeometry relative="1" as="geometry">
            <Array as="points">
              <mxPoint x="700" y="580" />
            </Array>
          </mxGeometry>
        </mxCell>
        <mxCell id="FCVZW7Y01I-0_65f3MMz-29" value="추적 함수 작동" style="whiteSpace=wrap;html=1;fillColor=#dae8fc;strokeColor=#6c8ebf;fillStyle=hatch;" vertex="1" parent="YCZqkkKsG8R1EkPZcTYx-4">
          <mxGeometry x="639" y="440" width="120" height="60" as="geometry" />
        </mxCell>
        <mxCell id="FCVZW7Y01I-0_65f3MMz-31" value="Update 종료" style="rounded=1;whiteSpace=wrap;html=1;" vertex="1" parent="YCZqkkKsG8R1EkPZcTYx-4">
          <mxGeometry x="960" y="560" width="120" height="60" as="geometry" />
        </mxCell>
        <mxCell id="FCVZW7Y01I-0_65f3MMz-52" value="NO" style="edgeStyle=orthogonalEdgeStyle;rounded=0;orthogonalLoop=1;jettySize=auto;html=1;" edge="1" parent="YCZqkkKsG8R1EkPZcTYx-4" source="FCVZW7Y01I-0_65f3MMz-47" target="FCVZW7Y01I-0_65f3MMz-51">
          <mxGeometry relative="1" as="geometry" />
        </mxCell>
        <mxCell id="FCVZW7Y01I-0_65f3MMz-57" value="YES" style="edgeStyle=orthogonalEdgeStyle;rounded=0;orthogonalLoop=1;jettySize=auto;html=1;" edge="1" parent="YCZqkkKsG8R1EkPZcTYx-4" source="FCVZW7Y01I-0_65f3MMz-47" target="FCVZW7Y01I-0_65f3MMz-56">
          <mxGeometry relative="1" as="geometry" />
        </mxCell>
        <mxCell id="FCVZW7Y01I-0_65f3MMz-47" value="타겟이 새로고침 &lt;br&gt;되었는가?" style="rhombus;whiteSpace=wrap;html=1;" vertex="1" parent="YCZqkkKsG8R1EkPZcTYx-4">
          <mxGeometry x="440" y="40" width="120" height="120" as="geometry" />
        </mxCell>
        <mxCell id="i-L3NODOChVkgr1h4idO-7" value="NO" style="edgeStyle=orthogonalEdgeStyle;rounded=0;orthogonalLoop=1;jettySize=auto;html=1;" edge="1" parent="YCZqkkKsG8R1EkPZcTYx-4" source="FCVZW7Y01I-0_65f3MMz-51" target="i-L3NODOChVkgr1h4idO-6">
          <mxGeometry relative="1" as="geometry" />
        </mxCell>
        <mxCell id="i-L3NODOChVkgr1h4idO-11" value="YES" style="edgeStyle=orthogonalEdgeStyle;rounded=0;orthogonalLoop=1;jettySize=auto;html=1;" edge="1" parent="YCZqkkKsG8R1EkPZcTYx-4" source="FCVZW7Y01I-0_65f3MMz-51" target="FCVZW7Y01I-0_65f3MMz-31">
          <mxGeometry relative="1" as="geometry" />
        </mxCell>
        <mxCell id="FCVZW7Y01I-0_65f3MMz-51" value="이동중인가 ?" style="rhombus;whiteSpace=wrap;html=1;" vertex="1" parent="YCZqkkKsG8R1EkPZcTYx-4">
          <mxGeometry x="640" y="40" width="120" height="120" as="geometry" />
        </mxCell>
        <mxCell id="FCVZW7Y01I-0_65f3MMz-59" style="edgeStyle=orthogonalEdgeStyle;rounded=0;orthogonalLoop=1;jettySize=auto;html=1;" edge="1" parent="YCZqkkKsG8R1EkPZcTYx-4" source="FCVZW7Y01I-0_65f3MMz-56" target="FCVZW7Y01I-0_65f3MMz-29">
          <mxGeometry relative="1" as="geometry">
            <Array as="points">
              <mxPoint x="500" y="470" />
            </Array>
          </mxGeometry>
        </mxCell>
        <mxCell id="FCVZW7Y01I-0_65f3MMz-56" value="타겟 신규 여부 변경&lt;br&gt;-&amp;gt; false" style="whiteSpace=wrap;html=1;" vertex="1" parent="YCZqkkKsG8R1EkPZcTYx-4">
          <mxGeometry x="440" y="240" width="120" height="60" as="geometry" />
        </mxCell>
        <mxCell id="i-L3NODOChVkgr1h4idO-9" value="YES" style="edgeStyle=orthogonalEdgeStyle;rounded=0;orthogonalLoop=1;jettySize=auto;html=1;" edge="1" parent="YCZqkkKsG8R1EkPZcTYx-4" source="i-L3NODOChVkgr1h4idO-6" target="i-L3NODOChVkgr1h4idO-8">
          <mxGeometry relative="1" as="geometry" />
        </mxCell>
        <mxCell id="i-L3NODOChVkgr1h4idO-10" value="NO" style="edgeStyle=orthogonalEdgeStyle;rounded=0;orthogonalLoop=1;jettySize=auto;html=1;" edge="1" parent="YCZqkkKsG8R1EkPZcTYx-4" source="i-L3NODOChVkgr1h4idO-6" target="FCVZW7Y01I-0_65f3MMz-29">
          <mxGeometry relative="1" as="geometry" />
        </mxCell>
        <mxCell id="i-L3NODOChVkgr1h4idO-6" value="명령이&lt;br&gt;완수되었는가?" style="rhombus;whiteSpace=wrap;html=1;" vertex="1" parent="YCZqkkKsG8R1EkPZcTYx-4">
          <mxGeometry x="640" y="240" width="120" height="120" as="geometry" />
        </mxCell>
        <mxCell id="i-L3NODOChVkgr1h4idO-12" style="edgeStyle=orthogonalEdgeStyle;rounded=0;orthogonalLoop=1;jettySize=auto;html=1;" edge="1" parent="YCZqkkKsG8R1EkPZcTYx-4" source="i-L3NODOChVkgr1h4idO-8" target="FCVZW7Y01I-0_65f3MMz-31">
          <mxGeometry relative="1" as="geometry">
            <Array as="points">
              <mxPoint x="900" y="445" />
              <mxPoint x="999" y="445" />
            </Array>
          </mxGeometry>
        </mxCell>
        <mxCell id="i-L3NODOChVkgr1h4idO-8" value="주변 응시" style="whiteSpace=wrap;html=1;" vertex="1" parent="YCZqkkKsG8R1EkPZcTYx-4">
          <mxGeometry x="840" y="270" width="120" height="60" as="geometry" />
        </mxCell>
        <mxCell id="FCVZW7Y01I-0_65f3MMz-34" value="추적 함수" style="swimlane;whiteSpace=wrap;html=1;fillColor=#dae8fc;strokeColor=#6c8ebf;fillStyle=hatch;" vertex="1" parent="1">
          <mxGeometry x="560" y="400" width="1000" height="680" as="geometry" />
        </mxCell>
        <mxCell id="FCVZW7Y01I-0_65f3MMz-37" style="edgeStyle=orthogonalEdgeStyle;rounded=0;orthogonalLoop=1;jettySize=auto;html=1;" edge="1" parent="FCVZW7Y01I-0_65f3MMz-34" source="FCVZW7Y01I-0_65f3MMz-35" target="FCVZW7Y01I-0_65f3MMz-20">
          <mxGeometry relative="1" as="geometry" />
        </mxCell>
        <mxCell id="FCVZW7Y01I-0_65f3MMz-35" value="추적 함수 시작" style="rounded=1;whiteSpace=wrap;html=1;" vertex="1" parent="FCVZW7Y01I-0_65f3MMz-34">
          <mxGeometry x="40" y="40" width="120" height="60" as="geometry" />
        </mxCell>
        <mxCell id="FCVZW7Y01I-0_65f3MMz-20" value="현재 타겟의 위치가&lt;br&gt;사거리 안인가?" style="rhombus;whiteSpace=wrap;html=1;" vertex="1" parent="FCVZW7Y01I-0_65f3MMz-34">
          <mxGeometry x="240" y="40" width="120" height="120" as="geometry" />
        </mxCell>
        <mxCell id="4FJ91JOwUW2BC45uzfR2-6" style="edgeStyle=orthogonalEdgeStyle;rounded=0;orthogonalLoop=1;jettySize=auto;html=1;" edge="1" parent="FCVZW7Y01I-0_65f3MMz-34" source="FCVZW7Y01I-0_65f3MMz-21" target="FCVZW7Y01I-0_65f3MMz-61">
          <mxGeometry relative="1" as="geometry">
            <Array as="points">
              <mxPoint x="500" y="590" />
            </Array>
          </mxGeometry>
        </mxCell>
        <mxCell id="FCVZW7Y01I-0_65f3MMz-21" value="타겟으로 이동&lt;br&gt;(패쓰파인더)" style="whiteSpace=wrap;html=1;fillColor=#f8cecc;strokeColor=#b85450;fillStyle=hatch;" vertex="1" parent="FCVZW7Y01I-0_65f3MMz-34">
          <mxGeometry x="440" y="440" width="120" height="60" as="geometry" />
        </mxCell>
        <mxCell id="FCVZW7Y01I-0_65f3MMz-18" value="NO" style="edgeStyle=orthogonalEdgeStyle;rounded=0;orthogonalLoop=1;jettySize=auto;html=1;" edge="1" parent="FCVZW7Y01I-0_65f3MMz-34" source="FCVZW7Y01I-0_65f3MMz-20" target="FCVZW7Y01I-0_65f3MMz-21">
          <mxGeometry relative="1" as="geometry">
            <Array as="points">
              <mxPoint x="300" y="470" />
            </Array>
          </mxGeometry>
        </mxCell>
        <mxCell id="4FJ91JOwUW2BC45uzfR2-5" value="NO" style="edgeStyle=orthogonalEdgeStyle;rounded=0;orthogonalLoop=1;jettySize=auto;html=1;" edge="1" parent="FCVZW7Y01I-0_65f3MMz-34" source="FCVZW7Y01I-0_65f3MMz-24" target="FCVZW7Y01I-0_65f3MMz-21">
          <mxGeometry relative="1" as="geometry" />
        </mxCell>
        <mxCell id="i-L3NODOChVkgr1h4idO-18" value="YES" style="edgeStyle=orthogonalEdgeStyle;rounded=0;orthogonalLoop=1;jettySize=auto;html=1;" edge="1" parent="FCVZW7Y01I-0_65f3MMz-34" source="FCVZW7Y01I-0_65f3MMz-24" target="i-L3NODOChVkgr1h4idO-17">
          <mxGeometry relative="1" as="geometry" />
        </mxCell>
        <mxCell id="FCVZW7Y01I-0_65f3MMz-24" value="타겟과 나 사이에&lt;br&gt;full 장애물이 없는가?&lt;br&gt;= 조준 가능한가?" style="rhombus;whiteSpace=wrap;html=1;" vertex="1" parent="FCVZW7Y01I-0_65f3MMz-34">
          <mxGeometry x="440" y="240" width="120" height="120" as="geometry" />
        </mxCell>
        <mxCell id="FCVZW7Y01I-0_65f3MMz-19" value="YES" style="edgeStyle=orthogonalEdgeStyle;rounded=0;orthogonalLoop=1;jettySize=auto;html=1;" edge="1" parent="FCVZW7Y01I-0_65f3MMz-34" source="FCVZW7Y01I-0_65f3MMz-20" target="i-L3NODOChVkgr1h4idO-13">
          <mxGeometry relative="1" as="geometry" />
        </mxCell>
        <mxCell id="4FJ91JOwUW2BC45uzfR2-7" style="edgeStyle=orthogonalEdgeStyle;rounded=0;orthogonalLoop=1;jettySize=auto;html=1;" edge="1" parent="FCVZW7Y01I-0_65f3MMz-34" source="FCVZW7Y01I-0_65f3MMz-28" target="FCVZW7Y01I-0_65f3MMz-61">
          <mxGeometry relative="1" as="geometry">
            <Array as="points">
              <mxPoint x="700" y="590" />
            </Array>
          </mxGeometry>
        </mxCell>
        <mxCell id="FCVZW7Y01I-0_65f3MMz-28" value="조준 함수 작동" style="whiteSpace=wrap;html=1;fillColor=#fff2cc;strokeColor=#d6b656;fillStyle=hatch;" vertex="1" parent="FCVZW7Y01I-0_65f3MMz-34">
          <mxGeometry x="640" y="440" width="120" height="60" as="geometry" />
        </mxCell>
        <mxCell id="FCVZW7Y01I-0_65f3MMz-61" value="추적 함수 종료" style="rounded=1;whiteSpace=wrap;html=1;" vertex="1" parent="FCVZW7Y01I-0_65f3MMz-34">
          <mxGeometry x="840" y="560" width="120" height="60" as="geometry" />
        </mxCell>
        <mxCell id="i-L3NODOChVkgr1h4idO-14" value="YES" style="edgeStyle=orthogonalEdgeStyle;rounded=0;orthogonalLoop=1;jettySize=auto;html=1;" edge="1" parent="FCVZW7Y01I-0_65f3MMz-34" source="i-L3NODOChVkgr1h4idO-13" target="FCVZW7Y01I-0_65f3MMz-24">
          <mxGeometry relative="1" as="geometry" />
        </mxCell>
        <mxCell id="i-L3NODOChVkgr1h4idO-16" value="NO" style="edgeStyle=orthogonalEdgeStyle;rounded=0;orthogonalLoop=1;jettySize=auto;html=1;" edge="1" parent="FCVZW7Y01I-0_65f3MMz-34" source="i-L3NODOChVkgr1h4idO-13" target="i-L3NODOChVkgr1h4idO-19">
          <mxGeometry relative="1" as="geometry">
            <mxPoint x="640" y="100" as="targetPoint" />
          </mxGeometry>
        </mxCell>
        <mxCell id="i-L3NODOChVkgr1h4idO-13" value="타겟의 위치가&lt;br&gt;이동 가능 위치인가?" style="rhombus;whiteSpace=wrap;html=1;" vertex="1" parent="FCVZW7Y01I-0_65f3MMz-34">
          <mxGeometry x="440" y="40" width="120" height="120" as="geometry" />
        </mxCell>
        <mxCell id="i-L3NODOChVkgr1h4idO-20" value="NO" style="edgeStyle=orthogonalEdgeStyle;rounded=0;orthogonalLoop=1;jettySize=auto;html=1;" edge="1" parent="FCVZW7Y01I-0_65f3MMz-34" source="i-L3NODOChVkgr1h4idO-17" target="i-L3NODOChVkgr1h4idO-19">
          <mxGeometry relative="1" as="geometry" />
        </mxCell>
        <mxCell id="i-L3NODOChVkgr1h4idO-21" value="YES" style="edgeStyle=orthogonalEdgeStyle;rounded=0;orthogonalLoop=1;jettySize=auto;html=1;" edge="1" parent="FCVZW7Y01I-0_65f3MMz-34" source="i-L3NODOChVkgr1h4idO-17" target="FCVZW7Y01I-0_65f3MMz-28">
          <mxGeometry relative="1" as="geometry" />
        </mxCell>
        <mxCell id="i-L3NODOChVkgr1h4idO-17" value="[전투] 상태인가?" style="rhombus;whiteSpace=wrap;html=1;" vertex="1" parent="FCVZW7Y01I-0_65f3MMz-34">
          <mxGeometry x="640" y="240" width="120" height="120" as="geometry" />
        </mxCell>
        <mxCell id="i-L3NODOChVkgr1h4idO-22" style="edgeStyle=orthogonalEdgeStyle;rounded=0;orthogonalLoop=1;jettySize=auto;html=1;" edge="1" parent="FCVZW7Y01I-0_65f3MMz-34" source="i-L3NODOChVkgr1h4idO-19" target="FCVZW7Y01I-0_65f3MMz-61">
          <mxGeometry relative="1" as="geometry" />
        </mxCell>
        <mxCell id="i-L3NODOChVkgr1h4idO-19" value="명령 완수 처리" style="whiteSpace=wrap;html=1;" vertex="1" parent="FCVZW7Y01I-0_65f3MMz-34">
          <mxGeometry x="840" y="270" width="120" height="60" as="geometry" />
        </mxCell>
        <mxCell id="FCVZW7Y01I-0_65f3MMz-43" value="타겟 신규 여부 변경&lt;br style=&quot;border-color: var(--border-color);&quot;&gt;-&amp;gt; true" style="rounded=0;whiteSpace=wrap;html=1;" vertex="1" parent="1">
          <mxGeometry x="961" y="-440" width="120" height="60" as="geometry" />
        </mxCell>
        <mxCell id="FCVZW7Y01I-0_65f3MMz-68" value="조준 함수" style="swimlane;whiteSpace=wrap;html=1;fillColor=#fff2cc;strokeColor=#d6b656;fillStyle=hatch;" vertex="1" parent="1">
          <mxGeometry x="561" y="1120" width="800" height="160" as="geometry" />
        </mxCell>
        <mxCell id="FCVZW7Y01I-0_65f3MMz-71" style="edgeStyle=orthogonalEdgeStyle;rounded=0;orthogonalLoop=1;jettySize=auto;html=1;" edge="1" parent="FCVZW7Y01I-0_65f3MMz-68" source="FCVZW7Y01I-0_65f3MMz-69" target="FCVZW7Y01I-0_65f3MMz-70">
          <mxGeometry relative="1" as="geometry" />
        </mxCell>
        <mxCell id="FCVZW7Y01I-0_65f3MMz-69" value="조준 함수 시작" style="rounded=1;whiteSpace=wrap;html=1;" vertex="1" parent="FCVZW7Y01I-0_65f3MMz-68">
          <mxGeometry x="40" y="40" width="120" height="60" as="geometry" />
        </mxCell>
        <mxCell id="FCVZW7Y01I-0_65f3MMz-75" value="" style="edgeStyle=orthogonalEdgeStyle;rounded=0;orthogonalLoop=1;jettySize=auto;html=1;" edge="1" parent="FCVZW7Y01I-0_65f3MMz-68" source="FCVZW7Y01I-0_65f3MMz-70" target="FCVZW7Y01I-0_65f3MMz-74">
          <mxGeometry relative="1" as="geometry" />
        </mxCell>
        <mxCell id="FCVZW7Y01I-0_65f3MMz-70" value="조준 타이머 설정:&lt;br&gt;[n] 초" style="rounded=0;whiteSpace=wrap;html=1;" vertex="1" parent="FCVZW7Y01I-0_65f3MMz-68">
          <mxGeometry x="240" y="40" width="120" height="60" as="geometry" />
        </mxCell>
        <mxCell id="FCVZW7Y01I-0_65f3MMz-88" style="edgeStyle=orthogonalEdgeStyle;rounded=0;orthogonalLoop=1;jettySize=auto;html=1;" edge="1" parent="FCVZW7Y01I-0_65f3MMz-68" source="FCVZW7Y01I-0_65f3MMz-74" target="FCVZW7Y01I-0_65f3MMz-87">
          <mxGeometry relative="1" as="geometry" />
        </mxCell>
        <mxCell id="FCVZW7Y01I-0_65f3MMz-74" value="조준 코루틴 시작" style="rounded=0;whiteSpace=wrap;html=1;fillColor=#fff2cc;strokeColor=#d6b656;fillStyle=auto;" vertex="1" parent="FCVZW7Y01I-0_65f3MMz-68">
          <mxGeometry x="440" y="40" width="120" height="60" as="geometry" />
        </mxCell>
        <mxCell id="FCVZW7Y01I-0_65f3MMz-87" value="조준 함수 종료" style="rounded=1;whiteSpace=wrap;html=1;" vertex="1" parent="FCVZW7Y01I-0_65f3MMz-68">
          <mxGeometry x="640" y="40" width="120" height="60" as="geometry" />
        </mxCell>
        <mxCell id="FCVZW7Y01I-0_65f3MMz-72" value="조준 코루틴" style="swimlane;whiteSpace=wrap;html=1;fillColor=#fff2cc;strokeColor=#d6b656;" vertex="1" parent="1">
          <mxGeometry x="561" y="1320" width="600" height="360" as="geometry" />
        </mxCell>
        <mxCell id="FCVZW7Y01I-0_65f3MMz-79" style="edgeStyle=orthogonalEdgeStyle;rounded=0;orthogonalLoop=1;jettySize=auto;html=1;" edge="1" parent="FCVZW7Y01I-0_65f3MMz-72" source="FCVZW7Y01I-0_65f3MMz-77" target="FCVZW7Y01I-0_65f3MMz-78">
          <mxGeometry relative="1" as="geometry" />
        </mxCell>
        <mxCell id="FCVZW7Y01I-0_65f3MMz-77" value="조준 코루틴 시작" style="rounded=1;whiteSpace=wrap;html=1;" vertex="1" parent="FCVZW7Y01I-0_65f3MMz-72">
          <mxGeometry x="40" y="40" width="120" height="60" as="geometry" />
        </mxCell>
        <mxCell id="FCVZW7Y01I-0_65f3MMz-81" value="YES" style="edgeStyle=orthogonalEdgeStyle;rounded=0;orthogonalLoop=1;jettySize=auto;html=1;" edge="1" parent="FCVZW7Y01I-0_65f3MMz-72" source="FCVZW7Y01I-0_65f3MMz-78" target="FCVZW7Y01I-0_65f3MMz-80">
          <mxGeometry relative="1" as="geometry" />
        </mxCell>
        <mxCell id="FCVZW7Y01I-0_65f3MMz-84" value="NO" style="edgeStyle=orthogonalEdgeStyle;rounded=0;orthogonalLoop=1;jettySize=auto;html=1;" edge="1" parent="FCVZW7Y01I-0_65f3MMz-72" source="FCVZW7Y01I-0_65f3MMz-78" target="FCVZW7Y01I-0_65f3MMz-83">
          <mxGeometry relative="1" as="geometry" />
        </mxCell>
        <mxCell id="FCVZW7Y01I-0_65f3MMz-78" value="타이머가 &lt;br&gt;남았는가?&lt;br&gt;조준 타이머 &amp;gt; 0?" style="rhombus;whiteSpace=wrap;html=1;" vertex="1" parent="FCVZW7Y01I-0_65f3MMz-72">
          <mxGeometry x="240" y="40" width="120" height="120" as="geometry" />
        </mxCell>
        <mxCell id="FCVZW7Y01I-0_65f3MMz-82" style="edgeStyle=orthogonalEdgeStyle;rounded=0;orthogonalLoop=1;jettySize=auto;html=1;" edge="1" parent="FCVZW7Y01I-0_65f3MMz-72" source="FCVZW7Y01I-0_65f3MMz-80" target="FCVZW7Y01I-0_65f3MMz-78">
          <mxGeometry relative="1" as="geometry">
            <Array as="points">
              <mxPoint x="500" y="50" />
            </Array>
          </mxGeometry>
        </mxCell>
        <mxCell id="FCVZW7Y01I-0_65f3MMz-80" value="조준 타이머 차감:&lt;br&gt;&amp;gt; - Time.deltaTime" style="whiteSpace=wrap;html=1;" vertex="1" parent="FCVZW7Y01I-0_65f3MMz-72">
          <mxGeometry x="440" y="70" width="120" height="60" as="geometry" />
        </mxCell>
        <mxCell id="FCVZW7Y01I-0_65f3MMz-86" style="edgeStyle=orthogonalEdgeStyle;rounded=0;orthogonalLoop=1;jettySize=auto;html=1;" edge="1" parent="FCVZW7Y01I-0_65f3MMz-72" source="FCVZW7Y01I-0_65f3MMz-83" target="FCVZW7Y01I-0_65f3MMz-85">
          <mxGeometry relative="1" as="geometry" />
        </mxCell>
        <mxCell id="FCVZW7Y01I-0_65f3MMz-83" value="공격 작동" style="whiteSpace=wrap;html=1;fillColor=#d5e8d4;strokeColor=#82b366;" vertex="1" parent="FCVZW7Y01I-0_65f3MMz-72">
          <mxGeometry x="240" y="240" width="120" height="60" as="geometry" />
        </mxCell>
        <mxCell id="FCVZW7Y01I-0_65f3MMz-85" value="조준 코루틴 종료" style="rounded=1;whiteSpace=wrap;html=1;" vertex="1" parent="FCVZW7Y01I-0_65f3MMz-72">
          <mxGeometry x="440" y="240" width="120" height="60" as="geometry" />
        </mxCell>
        <mxCell id="4FJ91JOwUW2BC45uzfR2-8" value="패쓰파인더 함수" style="swimlane;whiteSpace=wrap;html=1;fillStyle=hatch;fillColor=#f8cecc;strokeColor=#b85450;" vertex="1" parent="1">
          <mxGeometry x="1599" y="880" width="1200" height="560" as="geometry" />
        </mxCell>
        <mxCell id="4FJ91JOwUW2BC45uzfR2-18" style="edgeStyle=orthogonalEdgeStyle;rounded=0;orthogonalLoop=1;jettySize=auto;html=1;" edge="1" parent="4FJ91JOwUW2BC45uzfR2-8" source="4FJ91JOwUW2BC45uzfR2-9" target="4FJ91JOwUW2BC45uzfR2-17">
          <mxGeometry relative="1" as="geometry" />
        </mxCell>
        <mxCell id="4FJ91JOwUW2BC45uzfR2-9" value="패쓰파인더 &lt;br&gt;함수 시작" style="rounded=1;whiteSpace=wrap;html=1;" vertex="1" parent="4FJ91JOwUW2BC45uzfR2-8">
          <mxGeometry x="41" y="40" width="120" height="60" as="geometry" />
        </mxCell>
        <mxCell id="4FJ91JOwUW2BC45uzfR2-25" style="edgeStyle=orthogonalEdgeStyle;rounded=0;orthogonalLoop=1;jettySize=auto;html=1;" edge="1" parent="4FJ91JOwUW2BC45uzfR2-8" source="4FJ91JOwUW2BC45uzfR2-17" target="4FJ91JOwUW2BC45uzfR2-24">
          <mxGeometry relative="1" as="geometry" />
        </mxCell>
        <mxCell id="4FJ91JOwUW2BC45uzfR2-17" value="타겟과 나 사이&lt;br&gt;각도 계산: A도" style="rounded=0;whiteSpace=wrap;html=1;" vertex="1" parent="4FJ91JOwUW2BC45uzfR2-8">
          <mxGeometry x="242" y="40" width="120" height="60" as="geometry" />
        </mxCell>
        <mxCell id="4FJ91JOwUW2BC45uzfR2-28" value="NO" style="edgeStyle=orthogonalEdgeStyle;rounded=0;orthogonalLoop=1;jettySize=auto;html=1;" edge="1" parent="4FJ91JOwUW2BC45uzfR2-8" source="4FJ91JOwUW2BC45uzfR2-23" target="4FJ91JOwUW2BC45uzfR2-27">
          <mxGeometry relative="1" as="geometry" />
        </mxCell>
        <mxCell id="4FJ91JOwUW2BC45uzfR2-41" style="edgeStyle=orthogonalEdgeStyle;rounded=0;orthogonalLoop=1;jettySize=auto;html=1;" edge="1" parent="4FJ91JOwUW2BC45uzfR2-8" source="4FJ91JOwUW2BC45uzfR2-23" target="4FJ91JOwUW2BC45uzfR2-39">
          <mxGeometry relative="1" as="geometry" />
        </mxCell>
        <mxCell id="4FJ91JOwUW2BC45uzfR2-23" value="up 각도가 &lt;br&gt;장애물에 &lt;br&gt;걸리는가?" style="rhombus;whiteSpace=wrap;html=1;" vertex="1" parent="4FJ91JOwUW2BC45uzfR2-8">
          <mxGeometry x="641" y="80" width="120" height="120" as="geometry" />
        </mxCell>
        <mxCell id="4FJ91JOwUW2BC45uzfR2-26" style="edgeStyle=orthogonalEdgeStyle;rounded=0;orthogonalLoop=1;jettySize=auto;html=1;" edge="1" parent="4FJ91JOwUW2BC45uzfR2-8" source="4FJ91JOwUW2BC45uzfR2-24" target="4FJ91JOwUW2BC45uzfR2-23">
          <mxGeometry relative="1" as="geometry" />
        </mxCell>
        <mxCell id="4FJ91JOwUW2BC45uzfR2-24" value="up, down 각도 선언:&lt;br&gt;up = A + 1&lt;br&gt;down = A - 1" style="rounded=0;whiteSpace=wrap;html=1;" vertex="1" parent="4FJ91JOwUW2BC45uzfR2-8">
          <mxGeometry x="441" y="40" width="120" height="60" as="geometry" />
        </mxCell>
        <mxCell id="4FJ91JOwUW2BC45uzfR2-30" value="NO" style="edgeStyle=orthogonalEdgeStyle;rounded=0;orthogonalLoop=1;jettySize=auto;html=1;" edge="1" parent="4FJ91JOwUW2BC45uzfR2-8" source="4FJ91JOwUW2BC45uzfR2-27" target="4FJ91JOwUW2BC45uzfR2-29">
          <mxGeometry relative="1" as="geometry" />
        </mxCell>
        <mxCell id="4FJ91JOwUW2BC45uzfR2-44" style="edgeStyle=orthogonalEdgeStyle;rounded=0;orthogonalLoop=1;jettySize=auto;html=1;" edge="1" parent="4FJ91JOwUW2BC45uzfR2-8" source="4FJ91JOwUW2BC45uzfR2-27" target="4FJ91JOwUW2BC45uzfR2-43">
          <mxGeometry relative="1" as="geometry" />
        </mxCell>
        <mxCell id="4FJ91JOwUW2BC45uzfR2-27" value="down 각도가 &lt;br&gt;장애물에 &lt;br&gt;걸리는가?" style="rhombus;whiteSpace=wrap;html=1;" vertex="1" parent="4FJ91JOwUW2BC45uzfR2-8">
          <mxGeometry x="841" y="80" width="120" height="120" as="geometry" />
        </mxCell>
        <mxCell id="4FJ91JOwUW2BC45uzfR2-31" style="edgeStyle=orthogonalEdgeStyle;rounded=0;orthogonalLoop=1;jettySize=auto;html=1;" edge="1" parent="4FJ91JOwUW2BC45uzfR2-8" source="4FJ91JOwUW2BC45uzfR2-29" target="4FJ91JOwUW2BC45uzfR2-23">
          <mxGeometry relative="1" as="geometry">
            <Array as="points">
              <mxPoint x="701" y="50" />
            </Array>
          </mxGeometry>
        </mxCell>
        <mxCell id="4FJ91JOwUW2BC45uzfR2-29" value="up, down &lt;br&gt;각도 벌리기:&lt;br&gt;up++, down--" style="whiteSpace=wrap;html=1;" vertex="1" parent="4FJ91JOwUW2BC45uzfR2-8">
          <mxGeometry x="1041" y="40" width="120" height="60" as="geometry" />
        </mxCell>
        <mxCell id="4FJ91JOwUW2BC45uzfR2-47" value="" style="edgeStyle=orthogonalEdgeStyle;rounded=0;orthogonalLoop=1;jettySize=auto;html=1;" edge="1" parent="4FJ91JOwUW2BC45uzfR2-8" source="4FJ91JOwUW2BC45uzfR2-34" target="4FJ91JOwUW2BC45uzfR2-46">
          <mxGeometry relative="1" as="geometry">
            <Array as="points">
              <mxPoint x="701" y="510" />
            </Array>
          </mxGeometry>
        </mxCell>
        <mxCell id="4FJ91JOwUW2BC45uzfR2-34" value="이동할 각도 초기화:&lt;br&gt;&amp;gt; up + 10" style="whiteSpace=wrap;html=1;" vertex="1" parent="4FJ91JOwUW2BC45uzfR2-8">
          <mxGeometry x="641" y="360" width="120" height="60" as="geometry" />
        </mxCell>
        <mxCell id="4FJ91JOwUW2BC45uzfR2-48" style="edgeStyle=orthogonalEdgeStyle;rounded=0;orthogonalLoop=1;jettySize=auto;html=1;" edge="1" parent="4FJ91JOwUW2BC45uzfR2-8" source="4FJ91JOwUW2BC45uzfR2-37" target="4FJ91JOwUW2BC45uzfR2-46">
          <mxGeometry relative="1" as="geometry" />
        </mxCell>
        <mxCell id="4FJ91JOwUW2BC45uzfR2-37" value="이동할 각도 초기화:&lt;br&gt;&amp;gt; down - 10" style="whiteSpace=wrap;html=1;" vertex="1" parent="4FJ91JOwUW2BC45uzfR2-8">
          <mxGeometry x="841" y="360" width="120" height="60" as="geometry" />
        </mxCell>
        <mxCell id="4FJ91JOwUW2BC45uzfR2-42" style="edgeStyle=orthogonalEdgeStyle;rounded=0;orthogonalLoop=1;jettySize=auto;html=1;" edge="1" parent="4FJ91JOwUW2BC45uzfR2-8" source="4FJ91JOwUW2BC45uzfR2-39" target="4FJ91JOwUW2BC45uzfR2-34">
          <mxGeometry relative="1" as="geometry" />
        </mxCell>
        <mxCell id="4FJ91JOwUW2BC45uzfR2-39" value="이동할 거리 저장:&lt;br&gt;&amp;gt; d + collider의 60%" style="whiteSpace=wrap;html=1;" vertex="1" parent="4FJ91JOwUW2BC45uzfR2-8">
          <mxGeometry x="641" y="240" width="120" height="60" as="geometry" />
        </mxCell>
        <mxCell id="4FJ91JOwUW2BC45uzfR2-45" style="edgeStyle=orthogonalEdgeStyle;rounded=0;orthogonalLoop=1;jettySize=auto;html=1;" edge="1" parent="4FJ91JOwUW2BC45uzfR2-8" source="4FJ91JOwUW2BC45uzfR2-43" target="4FJ91JOwUW2BC45uzfR2-37">
          <mxGeometry relative="1" as="geometry" />
        </mxCell>
        <mxCell id="4FJ91JOwUW2BC45uzfR2-43" value="이동할 거리 저장:&lt;br style=&quot;border-color: var(--border-color);&quot;&gt;&amp;gt; d + collider의 60%" style="whiteSpace=wrap;html=1;" vertex="1" parent="4FJ91JOwUW2BC45uzfR2-8">
          <mxGeometry x="841" y="240" width="120" height="60" as="geometry" />
        </mxCell>
        <mxCell id="4FJ91JOwUW2BC45uzfR2-50" style="edgeStyle=orthogonalEdgeStyle;rounded=0;orthogonalLoop=1;jettySize=auto;html=1;" edge="1" parent="4FJ91JOwUW2BC45uzfR2-8" source="4FJ91JOwUW2BC45uzfR2-46" target="4FJ91JOwUW2BC45uzfR2-49">
          <mxGeometry relative="1" as="geometry" />
        </mxCell>
        <mxCell id="4FJ91JOwUW2BC45uzfR2-46" value="해당 각도와 거리로 &lt;br&gt;이동" style="whiteSpace=wrap;html=1;" vertex="1" parent="4FJ91JOwUW2BC45uzfR2-8">
          <mxGeometry x="841" y="480" width="120" height="60" as="geometry" />
        </mxCell>
        <mxCell id="4FJ91JOwUW2BC45uzfR2-49" value="패쓰파인더 &lt;br&gt;함수 종료" style="rounded=1;whiteSpace=wrap;html=1;" vertex="1" parent="4FJ91JOwUW2BC45uzfR2-8">
          <mxGeometry x="1041" y="480" width="120" height="60" as="geometry" />
        </mxCell>
        <mxCell id="i-L3NODOChVkgr1h4idO-1" value="명령 완료 여부를 판단하는 변수가 필요하다.&lt;br&gt;isOrderComplete: bool" style="text;html=1;strokeColor=none;fillColor=none;align=left;verticalAlign=top;whiteSpace=wrap;rounded=0;fontStyle=1" vertex="1" parent="1">
          <mxGeometry x="80" y="160" width="320" height="30" as="geometry" />
        </mxCell>
        <mxCell id="i-L3NODOChVkgr1h4idO-79" value="패쓰파인더 함수" style="swimlane;whiteSpace=wrap;html=1;fillColor=#f8cecc;strokeColor=#b85450;fillStyle=hatch;" vertex="1" parent="1">
          <mxGeometry x="3200" y="880" width="1370" height="840" as="geometry" />
        </mxCell>
        <mxCell id="i-L3NODOChVkgr1h4idO-85" style="edgeStyle=orthogonalEdgeStyle;rounded=0;orthogonalLoop=1;jettySize=auto;html=1;" edge="1" parent="i-L3NODOChVkgr1h4idO-79" source="i-L3NODOChVkgr1h4idO-80" target="i-L3NODOChVkgr1h4idO-84">
          <mxGeometry relative="1" as="geometry" />
        </mxCell>
        <mxCell id="i-L3NODOChVkgr1h4idO-80" value="패쓰파인더 &lt;br&gt;함수 시작" style="rounded=1;whiteSpace=wrap;html=1;" vertex="1" parent="i-L3NODOChVkgr1h4idO-79">
          <mxGeometry x="40" y="40" width="120" height="60" as="geometry" />
        </mxCell>
        <mxCell id="i-L3NODOChVkgr1h4idO-87" value="NO" style="edgeStyle=orthogonalEdgeStyle;rounded=0;orthogonalLoop=1;jettySize=auto;html=1;" edge="1" parent="i-L3NODOChVkgr1h4idO-79" source="i-L3NODOChVkgr1h4idO-84" target="i-L3NODOChVkgr1h4idO-86">
          <mxGeometry relative="1" as="geometry" />
        </mxCell>
        <mxCell id="i-L3NODOChVkgr1h4idO-92" value="YES" style="edgeStyle=orthogonalEdgeStyle;rounded=0;orthogonalLoop=1;jettySize=auto;html=1;" edge="1" parent="i-L3NODOChVkgr1h4idO-79" source="i-L3NODOChVkgr1h4idO-84" target="i-L3NODOChVkgr1h4idO-91">
          <mxGeometry relative="1" as="geometry">
            <Array as="points">
              <mxPoint x="260" y="300" />
            </Array>
          </mxGeometry>
        </mxCell>
        <mxCell id="i-L3NODOChVkgr1h4idO-84" value="전달받은 &lt;br&gt;full 장애물이&lt;br&gt;있는가?" style="rhombus;whiteSpace=wrap;html=1;" vertex="1" parent="i-L3NODOChVkgr1h4idO-79">
          <mxGeometry x="200" y="40" width="120" height="120" as="geometry" />
        </mxCell>
        <mxCell id="i-L3NODOChVkgr1h4idO-89" value="NO" style="edgeStyle=orthogonalEdgeStyle;rounded=0;orthogonalLoop=1;jettySize=auto;html=1;" edge="1" parent="i-L3NODOChVkgr1h4idO-79" source="i-L3NODOChVkgr1h4idO-86" target="i-L3NODOChVkgr1h4idO-88">
          <mxGeometry relative="1" as="geometry" />
        </mxCell>
        <mxCell id="i-L3NODOChVkgr1h4idO-93" value="YES" style="edgeStyle=orthogonalEdgeStyle;rounded=0;orthogonalLoop=1;jettySize=auto;html=1;" edge="1" parent="i-L3NODOChVkgr1h4idO-79" source="i-L3NODOChVkgr1h4idO-86" target="i-L3NODOChVkgr1h4idO-91">
          <mxGeometry relative="1" as="geometry" />
        </mxCell>
        <mxCell id="i-L3NODOChVkgr1h4idO-86" value="타겟과 나 사이의&lt;br&gt;내 시야 안에&lt;br style=&quot;border-color: var(--border-color);&quot;&gt;full 장애물이 있는가?" style="rhombus;whiteSpace=wrap;html=1;" vertex="1" parent="i-L3NODOChVkgr1h4idO-79">
          <mxGeometry x="400" y="40" width="120" height="120" as="geometry" />
        </mxCell>
        <mxCell id="i-L3NODOChVkgr1h4idO-88" value="내 시야 경계까지&lt;br&gt;타겟 방향으로 이동&lt;br&gt;= 무지성 이동" style="whiteSpace=wrap;html=1;" vertex="1" parent="i-L3NODOChVkgr1h4idO-79">
          <mxGeometry x="600" y="40" width="120" height="60" as="geometry" />
        </mxCell>
        <mxCell id="i-L3NODOChVkgr1h4idO-95" value="YES" style="edgeStyle=orthogonalEdgeStyle;rounded=0;orthogonalLoop=1;jettySize=auto;html=1;" edge="1" parent="i-L3NODOChVkgr1h4idO-79" source="i-L3NODOChVkgr1h4idO-91" target="i-L3NODOChVkgr1h4idO-94">
          <mxGeometry relative="1" as="geometry" />
        </mxCell>
        <mxCell id="i-L3NODOChVkgr1h4idO-97" value="NO" style="edgeStyle=orthogonalEdgeStyle;rounded=0;orthogonalLoop=1;jettySize=auto;html=1;" edge="1" parent="i-L3NODOChVkgr1h4idO-79" source="i-L3NODOChVkgr1h4idO-91">
          <mxGeometry relative="1" as="geometry">
            <mxPoint x="460" y="440" as="targetPoint" />
          </mxGeometry>
        </mxCell>
        <mxCell id="i-L3NODOChVkgr1h4idO-91" value="화면 너비 기준&lt;br&gt;각도 로직을 통해서&lt;br&gt;만날 수 있는가?" style="rhombus;whiteSpace=wrap;html=1;" vertex="1" parent="i-L3NODOChVkgr1h4idO-79">
          <mxGeometry x="400" y="240" width="120" height="120" as="geometry" />
        </mxCell>
        <mxCell id="i-L3NODOChVkgr1h4idO-94" value="각도 로직을 통한 &lt;br&gt;이동" style="whiteSpace=wrap;html=1;" vertex="1" parent="i-L3NODOChVkgr1h4idO-79">
          <mxGeometry x="600" y="270" width="120" height="60" as="geometry" />
        </mxCell>
        <mxCell id="i-L3NODOChVkgr1h4idO-81" value="패쓰파인더가 실행되었다는 것은 무슨 뜻인가?" style="text;html=1;strokeColor=none;fillColor=none;align=left;verticalAlign=top;whiteSpace=wrap;rounded=0;fontStyle=1" vertex="1" parent="1">
          <mxGeometry x="3200" y="600" width="440" height="30" as="geometry" />
        </mxCell>
        <mxCell id="i-L3NODOChVkgr1h4idO-82" value="1. 적이 사거리 안에 없을 경우" style="text;html=1;strokeColor=none;fillColor=none;align=left;verticalAlign=top;whiteSpace=wrap;rounded=0;fontStyle=1" vertex="1" parent="1">
          <mxGeometry x="3240" y="640" width="440" height="30" as="geometry" />
        </mxCell>
        <mxCell id="i-L3NODOChVkgr1h4idO-83" value="2. 적이 사거리 안에 있는데 나와의 사이에 장애물이 있을 경우" style="text;html=1;strokeColor=none;fillColor=none;align=left;verticalAlign=top;whiteSpace=wrap;rounded=0;fontStyle=1" vertex="1" parent="1">
          <mxGeometry x="3240" y="680" width="440" height="30" as="geometry" />
        </mxCell>
      </root>
    </mxGraphModel>
  </diagram>
  <diagram id="S6DAw786PNGn-e52cw7e" name="부대/개체 행동강령: [정찰]">
    <mxGraphModel dx="1687" dy="1068" grid="1" gridSize="10" guides="1" tooltips="1" connect="1" arrows="1" fold="1" page="1" pageScale="1" pageWidth="827" pageHeight="1169" math="0" shadow="0">
      <root>
        <mxCell id="0" />
        <mxCell id="1" parent="0" />
        <mxCell id="VMUJWk2rU8iNK_FT0oK8-1" value="행동강령: Petrol = 경비 임무" style="text;html=1;strokeColor=none;fillColor=none;align=left;verticalAlign=top;whiteSpace=wrap;rounded=0;fontStyle=1" parent="1" vertex="1">
          <mxGeometry x="40" y="40" width="480" height="30" as="geometry" />
        </mxCell>
        <mxCell id="CsE7AJ1f9aKyAfl2zUwM-1" value="주어진 루트를 따라 왔다리 갔다리 한다.&lt;br&gt;끝 점에 도달 시 특정 조건으로 경계한다." style="text;html=1;strokeColor=none;fillColor=none;align=left;verticalAlign=top;whiteSpace=wrap;rounded=0;fontStyle=1" parent="1" vertex="1">
          <mxGeometry x="80" y="80" width="480" height="30" as="geometry" />
        </mxCell>
        <mxCell id="S5n7hnJ3zYFoTvzLARi1-5" value="Transform[] petrolTrack을 인스턴스로 받는다" style="text;html=1;strokeColor=none;fillColor=none;align=left;verticalAlign=top;whiteSpace=wrap;rounded=0;fontStyle=1" parent="1" vertex="1">
          <mxGeometry x="120" y="160" width="480" height="30" as="geometry" />
        </mxCell>
        <mxCell id="5jsl5caUozIhTQMPQ43k-1" value="해당 petrolTrack을 왔다리갔다리 한다" style="text;html=1;strokeColor=none;fillColor=none;align=left;verticalAlign=top;whiteSpace=wrap;rounded=0;fontStyle=1" parent="1" vertex="1">
          <mxGeometry x="120" y="200" width="480" height="30" as="geometry" />
        </mxCell>
        <mxCell id="8THjv9KEtkl-TmpsiYMR-29" style="edgeStyle=orthogonalEdgeStyle;rounded=0;orthogonalLoop=1;jettySize=auto;html=1;" parent="1" source="jmiAYkXJnsy_iGX2JnMb-1" target="8THjv9KEtkl-TmpsiYMR-1" edge="1">
          <mxGeometry relative="1" as="geometry" />
        </mxCell>
        <mxCell id="jmiAYkXJnsy_iGX2JnMb-1" value="AI 시작" style="rounded=1;whiteSpace=wrap;html=1;" parent="1" vertex="1">
          <mxGeometry x="39.999999999999545" y="320" width="160" height="80" as="geometry" />
        </mxCell>
        <mxCell id="8THjv9KEtkl-TmpsiYMR-1" value="Update" style="swimlane;whiteSpace=wrap;html=1;" parent="1" vertex="1">
          <mxGeometry x="240" y="320" width="1120" height="720" as="geometry" />
        </mxCell>
        <mxCell id="8THjv9KEtkl-TmpsiYMR-3" value="NO" style="edgeStyle=orthogonalEdgeStyle;rounded=0;orthogonalLoop=1;jettySize=auto;html=1;" parent="8THjv9KEtkl-TmpsiYMR-1" source="8THjv9KEtkl-TmpsiYMR-5" target="8THjv9KEtkl-TmpsiYMR-39" edge="1">
          <mxGeometry x="-0.803" relative="1" as="geometry">
            <Array as="points">
              <mxPoint x="160" y="640" />
            </Array>
            <mxPoint as="offset" />
            <mxPoint x="479.9999999999991" y="1080.0588235294117" as="targetPoint" />
          </mxGeometry>
        </mxCell>
        <mxCell id="8THjv9KEtkl-TmpsiYMR-31" value="YES" style="edgeStyle=orthogonalEdgeStyle;rounded=0;orthogonalLoop=1;jettySize=auto;html=1;" parent="8THjv9KEtkl-TmpsiYMR-1" source="8THjv9KEtkl-TmpsiYMR-5" target="8THjv9KEtkl-TmpsiYMR-30" edge="1">
          <mxGeometry relative="1" as="geometry" />
        </mxCell>
        <mxCell id="8THjv9KEtkl-TmpsiYMR-5" value="현재 Base AI &lt;br&gt;메인 행동강령이&lt;br&gt;패트롤인가?" style="rhombus;whiteSpace=wrap;html=1;" parent="8THjv9KEtkl-TmpsiYMR-1" vertex="1">
          <mxGeometry x="79.99999999999955" y="200" width="160" height="160" as="geometry" />
        </mxCell>
        <mxCell id="8THjv9KEtkl-TmpsiYMR-14" style="edgeStyle=orthogonalEdgeStyle;rounded=0;orthogonalLoop=1;jettySize=auto;html=1;" parent="8THjv9KEtkl-TmpsiYMR-1" source="8THjv9KEtkl-TmpsiYMR-15" target="8THjv9KEtkl-TmpsiYMR-5" edge="1">
          <mxGeometry relative="1" as="geometry" />
        </mxCell>
        <mxCell id="8THjv9KEtkl-TmpsiYMR-15" value="Update 문 시작" style="rounded=1;whiteSpace=wrap;html=1;" parent="8THjv9KEtkl-TmpsiYMR-1" vertex="1">
          <mxGeometry x="79.99999999999955" y="40" width="160" height="80" as="geometry" />
        </mxCell>
        <mxCell id="8THjv9KEtkl-TmpsiYMR-34" value="NO" style="edgeStyle=orthogonalEdgeStyle;rounded=0;orthogonalLoop=1;jettySize=auto;html=1;" parent="8THjv9KEtkl-TmpsiYMR-1" source="8THjv9KEtkl-TmpsiYMR-30" target="8THjv9KEtkl-TmpsiYMR-32" edge="1">
          <mxGeometry relative="1" as="geometry" />
        </mxCell>
        <mxCell id="8THjv9KEtkl-TmpsiYMR-42" value="YES" style="edgeStyle=orthogonalEdgeStyle;rounded=0;orthogonalLoop=1;jettySize=auto;html=1;" parent="8THjv9KEtkl-TmpsiYMR-1" source="8THjv9KEtkl-TmpsiYMR-30" target="8THjv9KEtkl-TmpsiYMR-39" edge="1">
          <mxGeometry relative="1" as="geometry">
            <Array as="points">
              <mxPoint x="400" y="620" />
            </Array>
          </mxGeometry>
        </mxCell>
        <mxCell id="8THjv9KEtkl-TmpsiYMR-30" value="현재 Base AI가&lt;br&gt;이동/응시를 하는&lt;br&gt;&quot;도중에&quot; 있는가?" style="rhombus;whiteSpace=wrap;html=1;" parent="8THjv9KEtkl-TmpsiYMR-1" vertex="1">
          <mxGeometry x="319.99999999999955" y="200" width="160" height="160" as="geometry" />
        </mxCell>
        <mxCell id="8THjv9KEtkl-TmpsiYMR-36" value="YES" style="edgeStyle=orthogonalEdgeStyle;rounded=0;orthogonalLoop=1;jettySize=auto;html=1;" parent="8THjv9KEtkl-TmpsiYMR-1" source="8THjv9KEtkl-TmpsiYMR-32" target="8THjv9KEtkl-TmpsiYMR-35" edge="1">
          <mxGeometry relative="1" as="geometry" />
        </mxCell>
        <mxCell id="8THjv9KEtkl-TmpsiYMR-38" value="NO" style="edgeStyle=orthogonalEdgeStyle;rounded=0;orthogonalLoop=1;jettySize=auto;html=1;" parent="8THjv9KEtkl-TmpsiYMR-1" source="8THjv9KEtkl-TmpsiYMR-32" target="8THjv9KEtkl-TmpsiYMR-37" edge="1">
          <mxGeometry relative="1" as="geometry">
            <Array as="points">
              <mxPoint x="640" y="440" />
            </Array>
          </mxGeometry>
        </mxCell>
        <mxCell id="8THjv9KEtkl-TmpsiYMR-32" value="다음으로 &lt;br&gt;이동할 포인트가&lt;br&gt;있는가?" style="rhombus;whiteSpace=wrap;html=1;" parent="8THjv9KEtkl-TmpsiYMR-1" vertex="1">
          <mxGeometry x="559.9999999999995" y="200" width="160" height="160" as="geometry" />
        </mxCell>
        <mxCell id="8THjv9KEtkl-TmpsiYMR-41" style="edgeStyle=orthogonalEdgeStyle;rounded=0;orthogonalLoop=1;jettySize=auto;html=1;" parent="8THjv9KEtkl-TmpsiYMR-1" source="8THjv9KEtkl-TmpsiYMR-35" target="8THjv9KEtkl-TmpsiYMR-39" edge="1">
          <mxGeometry relative="1" as="geometry" />
        </mxCell>
        <mxCell id="8THjv9KEtkl-TmpsiYMR-35" value="Base AI에 &lt;br&gt;이동할 포인트 전달" style="whiteSpace=wrap;html=1;" parent="8THjv9KEtkl-TmpsiYMR-1" vertex="1">
          <mxGeometry x="800" y="240" width="160" height="80" as="geometry" />
        </mxCell>
        <mxCell id="8THjv9KEtkl-TmpsiYMR-40" style="edgeStyle=orthogonalEdgeStyle;rounded=0;orthogonalLoop=1;jettySize=auto;html=1;" parent="8THjv9KEtkl-TmpsiYMR-1" source="8THjv9KEtkl-TmpsiYMR-37" target="8THjv9KEtkl-TmpsiYMR-39" edge="1">
          <mxGeometry relative="1" as="geometry" />
        </mxCell>
        <mxCell id="8THjv9KEtkl-TmpsiYMR-37" value="Queue 정/역방향 고려해서&lt;br&gt;재장전" style="whiteSpace=wrap;html=1;" parent="8THjv9KEtkl-TmpsiYMR-1" vertex="1">
          <mxGeometry x="560" y="440" width="160" height="80" as="geometry" />
        </mxCell>
        <mxCell id="8THjv9KEtkl-TmpsiYMR-39" value="Update 문 종료" style="rounded=1;whiteSpace=wrap;html=1;" parent="8THjv9KEtkl-TmpsiYMR-1" vertex="1">
          <mxGeometry x="799.9999999999995" y="600" width="160" height="80" as="geometry" />
        </mxCell>
        <mxCell id="8THjv9KEtkl-TmpsiYMR-33" value="petrolTrack을 정방향/역방향에 따라 순차적으로 넣은 Queue를 이용한다" style="text;html=1;strokeColor=none;fillColor=none;align=left;verticalAlign=top;whiteSpace=wrap;rounded=0;fontStyle=1" parent="1" vertex="1">
          <mxGeometry x="120" y="240" width="480" height="30" as="geometry" />
        </mxCell>
      </root>
    </mxGraphModel>
  </diagram>
  <diagram id="5vYZY3dWBn1kAYYFulpV" name="[폐기] 개체 행동강령: [전투]">
    <mxGraphModel dx="1012" dy="766" grid="1" gridSize="10" guides="1" tooltips="1" connect="1" arrows="1" fold="1" page="1" pageScale="1" pageWidth="827" pageHeight="1169" math="0" shadow="0">
      <root>
        <mxCell id="0" />
        <mxCell id="1" parent="0" />
        <mxCell id="cc4xlF62qYfhfk9t3LAi-1" value="부대 행동강령: Combat = 전투" style="text;html=1;strokeColor=none;fillColor=none;align=left;verticalAlign=top;whiteSpace=wrap;rounded=0;fontStyle=1" vertex="1" parent="1">
          <mxGeometry x="40" y="40" width="480" height="30" as="geometry" />
        </mxCell>
        <mxCell id="cc4xlF62qYfhfk9t3LAi-2" value="부대원 중 적을 식별한 경우가 있을 경우, 부대원들의 상태를 [전투] 로 일괄 변경한다." style="text;html=1;strokeColor=none;fillColor=none;align=left;verticalAlign=top;whiteSpace=wrap;rounded=0;fontStyle=1" vertex="1" parent="1">
          <mxGeometry x="80" y="80" width="480" height="30" as="geometry" />
        </mxCell>
        <mxCell id="cc4xlF62qYfhfk9t3LAi-5" value="최초 식별이 시작되었을 때 타이머가 시작된다.&lt;br&gt;해당 타이머가 끝날때까지 추가 식별이 없을 경우, &lt;br&gt;부대원들의 상태를 [정찰] 로 일괄 변경한다." style="text;html=1;strokeColor=none;fillColor=none;align=left;verticalAlign=top;whiteSpace=wrap;rounded=0;fontStyle=1" vertex="1" parent="1">
          <mxGeometry x="80" y="120" width="480" height="30" as="geometry" />
        </mxCell>
        <mxCell id="cc4xlF62qYfhfk9t3LAi-6" value="타이머가 작동하는 동안 추가 식별이 있을 경우, 타이머 시간을 초기화한다." style="text;html=1;strokeColor=none;fillColor=none;align=left;verticalAlign=top;whiteSpace=wrap;rounded=0;fontStyle=1" vertex="1" parent="1">
          <mxGeometry x="80" y="200" width="480" height="30" as="geometry" />
        </mxCell>
        <mxCell id="8WzwmRyZxccp1UDcbhNE-4" value="" style="edgeStyle=orthogonalEdgeStyle;rounded=0;orthogonalLoop=1;jettySize=auto;html=1;" edge="1" parent="1" source="8WzwmRyZxccp1UDcbhNE-2" target="8WzwmRyZxccp1UDcbhNE-3">
          <mxGeometry relative="1" as="geometry" />
        </mxCell>
        <mxCell id="8WzwmRyZxccp1UDcbhNE-2" value="최초 식별" style="shape=parallelogram;perimeter=parallelogramPerimeter;whiteSpace=wrap;html=1;fixedSize=1;" vertex="1" parent="1">
          <mxGeometry x="640" y="40" width="120" height="60" as="geometry" />
        </mxCell>
        <mxCell id="8WzwmRyZxccp1UDcbhNE-6" value="" style="edgeStyle=orthogonalEdgeStyle;rounded=0;orthogonalLoop=1;jettySize=auto;html=1;" edge="1" parent="1" source="8WzwmRyZxccp1UDcbhNE-3" target="8WzwmRyZxccp1UDcbhNE-5">
          <mxGeometry relative="1" as="geometry" />
        </mxCell>
        <mxCell id="8WzwmRyZxccp1UDcbhNE-3" value="상태 일괄 변경:&lt;br&gt;-&amp;gt; [전투]" style="whiteSpace=wrap;html=1;" vertex="1" parent="1">
          <mxGeometry x="840" y="40" width="120" height="60" as="geometry" />
        </mxCell>
        <mxCell id="8WzwmRyZxccp1UDcbhNE-5" value="타이머 시작:&lt;br&gt;-&amp;gt; [n] 초" style="whiteSpace=wrap;html=1;" vertex="1" parent="1">
          <mxGeometry x="1040" y="40" width="120" height="60" as="geometry" />
        </mxCell>
        <mxCell id="8WzwmRyZxccp1UDcbhNE-7" value="Update 함수" style="swimlane;whiteSpace=wrap;html=1;" vertex="1" parent="1">
          <mxGeometry x="640" y="160" width="960" height="520" as="geometry">
            <mxRectangle x="640" y="160" width="110" height="30" as="alternateBounds" />
          </mxGeometry>
        </mxCell>
        <mxCell id="8WzwmRyZxccp1UDcbhNE-10" value="YES" style="edgeStyle=orthogonalEdgeStyle;rounded=0;orthogonalLoop=1;jettySize=auto;html=1;" edge="1" parent="8WzwmRyZxccp1UDcbhNE-7" source="8WzwmRyZxccp1UDcbhNE-8" target="8WzwmRyZxccp1UDcbhNE-9">
          <mxGeometry relative="1" as="geometry" />
        </mxCell>
        <mxCell id="8WzwmRyZxccp1UDcbhNE-16" value="NO" style="edgeStyle=orthogonalEdgeStyle;rounded=0;orthogonalLoop=1;jettySize=auto;html=1;" edge="1" parent="8WzwmRyZxccp1UDcbhNE-7" source="8WzwmRyZxccp1UDcbhNE-8" target="8WzwmRyZxccp1UDcbhNE-15">
          <mxGeometry relative="1" as="geometry" />
        </mxCell>
        <mxCell id="8WzwmRyZxccp1UDcbhNE-8" value="추가 식별이 &lt;br&gt;있는가?" style="rhombus;whiteSpace=wrap;html=1;" vertex="1" parent="8WzwmRyZxccp1UDcbhNE-7">
          <mxGeometry x="400" y="40" width="120" height="120" as="geometry" />
        </mxCell>
        <mxCell id="8WzwmRyZxccp1UDcbhNE-31" style="edgeStyle=orthogonalEdgeStyle;rounded=0;orthogonalLoop=1;jettySize=auto;html=1;" edge="1" parent="8WzwmRyZxccp1UDcbhNE-7" source="8WzwmRyZxccp1UDcbhNE-9" target="8WzwmRyZxccp1UDcbhNE-23">
          <mxGeometry relative="1" as="geometry" />
        </mxCell>
        <mxCell id="8WzwmRyZxccp1UDcbhNE-9" value="타이머 초기화:&lt;br&gt;-&amp;gt; [n] 초" style="whiteSpace=wrap;html=1;" vertex="1" parent="8WzwmRyZxccp1UDcbhNE-7">
          <mxGeometry x="600" y="40" width="120" height="60" as="geometry" />
        </mxCell>
        <mxCell id="8WzwmRyZxccp1UDcbhNE-12" style="edgeStyle=orthogonalEdgeStyle;rounded=0;orthogonalLoop=1;jettySize=auto;html=1;" edge="1" parent="8WzwmRyZxccp1UDcbhNE-7" source="8WzwmRyZxccp1UDcbhNE-11" target="8WzwmRyZxccp1UDcbhNE-8">
          <mxGeometry relative="1" as="geometry" />
        </mxCell>
        <mxCell id="8WzwmRyZxccp1UDcbhNE-11" value="타이머 차감:&lt;br&gt;-&amp;gt; -Time.deltaTime" style="rounded=0;whiteSpace=wrap;html=1;" vertex="1" parent="8WzwmRyZxccp1UDcbhNE-7">
          <mxGeometry x="200" y="40" width="120" height="60" as="geometry" />
        </mxCell>
        <mxCell id="8WzwmRyZxccp1UDcbhNE-20" value="YES" style="edgeStyle=orthogonalEdgeStyle;rounded=0;orthogonalLoop=1;jettySize=auto;html=1;" edge="1" parent="8WzwmRyZxccp1UDcbhNE-7" source="8WzwmRyZxccp1UDcbhNE-15" target="8WzwmRyZxccp1UDcbhNE-19">
          <mxGeometry relative="1" as="geometry" />
        </mxCell>
        <mxCell id="8WzwmRyZxccp1UDcbhNE-15" value="타이머가&lt;br&gt;끝났는가?" style="rhombus;whiteSpace=wrap;html=1;" vertex="1" parent="8WzwmRyZxccp1UDcbhNE-7">
          <mxGeometry x="400" y="240" width="120" height="120" as="geometry" />
        </mxCell>
        <mxCell id="8WzwmRyZxccp1UDcbhNE-24" style="edgeStyle=orthogonalEdgeStyle;rounded=0;orthogonalLoop=1;jettySize=auto;html=1;" edge="1" parent="8WzwmRyZxccp1UDcbhNE-7" source="8WzwmRyZxccp1UDcbhNE-19" target="8WzwmRyZxccp1UDcbhNE-23">
          <mxGeometry relative="1" as="geometry" />
        </mxCell>
        <mxCell id="8WzwmRyZxccp1UDcbhNE-19" value="상태 일괄 변경:&lt;br&gt;-&amp;gt; [정찰]" style="whiteSpace=wrap;html=1;" vertex="1" parent="8WzwmRyZxccp1UDcbhNE-7">
          <mxGeometry x="600" y="240" width="120" height="60" as="geometry" />
        </mxCell>
        <mxCell id="8WzwmRyZxccp1UDcbhNE-28" style="edgeStyle=orthogonalEdgeStyle;rounded=0;orthogonalLoop=1;jettySize=auto;html=1;" edge="1" parent="8WzwmRyZxccp1UDcbhNE-7" source="8WzwmRyZxccp1UDcbhNE-21" target="8WzwmRyZxccp1UDcbhNE-27">
          <mxGeometry relative="1" as="geometry" />
        </mxCell>
        <mxCell id="8WzwmRyZxccp1UDcbhNE-21" value="Update 함수 시작" style="rounded=1;whiteSpace=wrap;html=1;" vertex="1" parent="8WzwmRyZxccp1UDcbhNE-7">
          <mxGeometry x="40" y="40" width="120" height="60" as="geometry" />
        </mxCell>
        <mxCell id="8WzwmRyZxccp1UDcbhNE-23" value="Update 함수 종료" style="rounded=1;whiteSpace=wrap;html=1;" vertex="1" parent="8WzwmRyZxccp1UDcbhNE-7">
          <mxGeometry x="800" y="440" width="120" height="60" as="geometry" />
        </mxCell>
        <mxCell id="8WzwmRyZxccp1UDcbhNE-29" value="YES" style="edgeStyle=orthogonalEdgeStyle;rounded=0;orthogonalLoop=1;jettySize=auto;html=1;" edge="1" parent="8WzwmRyZxccp1UDcbhNE-7" source="8WzwmRyZxccp1UDcbhNE-27" target="8WzwmRyZxccp1UDcbhNE-11">
          <mxGeometry relative="1" as="geometry" />
        </mxCell>
        <mxCell id="8WzwmRyZxccp1UDcbhNE-30" value="NO" style="edgeStyle=orthogonalEdgeStyle;rounded=0;orthogonalLoop=1;jettySize=auto;html=1;" edge="1" parent="8WzwmRyZxccp1UDcbhNE-7" source="8WzwmRyZxccp1UDcbhNE-27" target="8WzwmRyZxccp1UDcbhNE-23">
          <mxGeometry relative="1" as="geometry">
            <Array as="points">
              <mxPoint x="100" y="470" />
            </Array>
          </mxGeometry>
        </mxCell>
        <mxCell id="8WzwmRyZxccp1UDcbhNE-27" value="타이머가 &lt;br&gt;작동중인가?" style="rhombus;whiteSpace=wrap;html=1;" vertex="1" parent="8WzwmRyZxccp1UDcbhNE-7">
          <mxGeometry x="40" y="160" width="120" height="120" as="geometry" />
        </mxCell>
      </root>
    </mxGraphModel>
  </diagram>
  <diagram id="R055utxyC_GJqfo8sWal" name="개체 행동강령: [추적]">
    <mxGraphModel dx="1674" dy="908" grid="1" gridSize="10" guides="1" tooltips="1" connect="1" arrows="1" fold="1" page="1" pageScale="1" pageWidth="827" pageHeight="1169" math="0" shadow="0">
      <root>
        <mxCell id="0" />
        <mxCell id="1" parent="0" />
        <mxCell id="MCZAGIcVDTXPBuk1mv-D-1" value="행동강령: Trace = 추적 임무" style="text;html=1;strokeColor=none;fillColor=none;align=left;verticalAlign=top;whiteSpace=wrap;rounded=0;fontStyle=1" parent="1" vertex="1">
          <mxGeometry x="40" y="40" width="480" height="30" as="geometry" />
        </mxCell>
        <mxCell id="e9fMFx5IANH7zGIxKobY-1" value="주어진 타겟 Transform을 추적한다" style="text;html=1;strokeColor=none;fillColor=none;align=left;verticalAlign=top;whiteSpace=wrap;rounded=0;fontStyle=1" parent="1" vertex="1">
          <mxGeometry x="80" y="80" width="480" height="30" as="geometry" />
        </mxCell>
        <mxCell id="-QBPXvrVtQgLwy40fgsl-1" value="타겟 추적용 Transform targetTf 와 마지막 위치 저장용 Vector3 lastPosition을 갖는다" style="text;html=1;strokeColor=none;fillColor=none;align=left;verticalAlign=top;whiteSpace=wrap;rounded=0;fontStyle=1" parent="1" vertex="1">
          <mxGeometry x="120" y="160" width="480" height="30" as="geometry" />
        </mxCell>
        <mxCell id="95ozyLiAp2AXOH3v3bRi-1" style="edgeStyle=orthogonalEdgeStyle;rounded=0;orthogonalLoop=1;jettySize=auto;html=1;" parent="1" source="95ozyLiAp2AXOH3v3bRi-2" target="95ozyLiAp2AXOH3v3bRi-3" edge="1">
          <mxGeometry relative="1" as="geometry" />
        </mxCell>
        <mxCell id="95ozyLiAp2AXOH3v3bRi-2" value="AI 시작" style="rounded=1;whiteSpace=wrap;html=1;" parent="1" vertex="1">
          <mxGeometry x="39.999999999999545" y="320" width="160" height="80" as="geometry" />
        </mxCell>
        <mxCell id="95ozyLiAp2AXOH3v3bRi-3" value="Update" style="swimlane;whiteSpace=wrap;html=1;" parent="1" vertex="1">
          <mxGeometry x="240" y="320" width="1120" height="720" as="geometry" />
        </mxCell>
        <mxCell id="95ozyLiAp2AXOH3v3bRi-4" value="NO" style="edgeStyle=orthogonalEdgeStyle;rounded=0;orthogonalLoop=1;jettySize=auto;html=1;" parent="95ozyLiAp2AXOH3v3bRi-3" source="95ozyLiAp2AXOH3v3bRi-6" target="95ozyLiAp2AXOH3v3bRi-19" edge="1">
          <mxGeometry x="-0.803" relative="1" as="geometry">
            <Array as="points">
              <mxPoint x="160" y="640" />
            </Array>
            <mxPoint as="offset" />
            <mxPoint x="479.9999999999991" y="1080.0588235294117" as="targetPoint" />
          </mxGeometry>
        </mxCell>
        <mxCell id="95ozyLiAp2AXOH3v3bRi-5" value="YES" style="edgeStyle=orthogonalEdgeStyle;rounded=0;orthogonalLoop=1;jettySize=auto;html=1;" parent="95ozyLiAp2AXOH3v3bRi-3" source="95ozyLiAp2AXOH3v3bRi-6" target="95ozyLiAp2AXOH3v3bRi-11" edge="1">
          <mxGeometry relative="1" as="geometry" />
        </mxCell>
        <mxCell id="95ozyLiAp2AXOH3v3bRi-6" value="현재 Base AI &lt;br&gt;메인 행동강령이&lt;br&gt;추적인가?" style="rhombus;whiteSpace=wrap;html=1;" parent="95ozyLiAp2AXOH3v3bRi-3" vertex="1">
          <mxGeometry x="79.99999999999955" y="200" width="160" height="160" as="geometry" />
        </mxCell>
        <mxCell id="95ozyLiAp2AXOH3v3bRi-7" style="edgeStyle=orthogonalEdgeStyle;rounded=0;orthogonalLoop=1;jettySize=auto;html=1;" parent="95ozyLiAp2AXOH3v3bRi-3" source="95ozyLiAp2AXOH3v3bRi-8" target="95ozyLiAp2AXOH3v3bRi-6" edge="1">
          <mxGeometry relative="1" as="geometry" />
        </mxCell>
        <mxCell id="95ozyLiAp2AXOH3v3bRi-8" value="Update 문 시작" style="rounded=1;whiteSpace=wrap;html=1;" parent="95ozyLiAp2AXOH3v3bRi-3" vertex="1">
          <mxGeometry x="79.99999999999955" y="40" width="160" height="80" as="geometry" />
        </mxCell>
        <mxCell id="95ozyLiAp2AXOH3v3bRi-9" value="NO" style="edgeStyle=orthogonalEdgeStyle;rounded=0;orthogonalLoop=1;jettySize=auto;html=1;" parent="95ozyLiAp2AXOH3v3bRi-3" source="95ozyLiAp2AXOH3v3bRi-11" target="95ozyLiAp2AXOH3v3bRi-14" edge="1">
          <mxGeometry relative="1" as="geometry" />
        </mxCell>
        <mxCell id="95ozyLiAp2AXOH3v3bRi-23" value="YES" style="edgeStyle=orthogonalEdgeStyle;rounded=0;orthogonalLoop=1;jettySize=auto;html=1;" parent="95ozyLiAp2AXOH3v3bRi-3" source="95ozyLiAp2AXOH3v3bRi-11" target="95ozyLiAp2AXOH3v3bRi-22" edge="1">
          <mxGeometry relative="1" as="geometry" />
        </mxCell>
        <mxCell id="95ozyLiAp2AXOH3v3bRi-11" value="현재 전달받은&lt;br&gt;타겟이 있는가?" style="rhombus;whiteSpace=wrap;html=1;" parent="95ozyLiAp2AXOH3v3bRi-3" vertex="1">
          <mxGeometry x="319.99999999999955" y="200" width="160" height="160" as="geometry" />
        </mxCell>
        <mxCell id="95ozyLiAp2AXOH3v3bRi-12" value="YES" style="edgeStyle=orthogonalEdgeStyle;rounded=0;orthogonalLoop=1;jettySize=auto;html=1;" parent="95ozyLiAp2AXOH3v3bRi-3" source="95ozyLiAp2AXOH3v3bRi-14" target="95ozyLiAp2AXOH3v3bRi-16" edge="1">
          <mxGeometry relative="1" as="geometry" />
        </mxCell>
        <mxCell id="95ozyLiAp2AXOH3v3bRi-13" value="NO" style="edgeStyle=orthogonalEdgeStyle;rounded=0;orthogonalLoop=1;jettySize=auto;html=1;" parent="95ozyLiAp2AXOH3v3bRi-3" source="95ozyLiAp2AXOH3v3bRi-14" target="95ozyLiAp2AXOH3v3bRi-19" edge="1">
          <mxGeometry relative="1" as="geometry">
            <Array as="points">
              <mxPoint x="640" y="440" />
              <mxPoint x="840" y="440" />
            </Array>
            <mxPoint x="639.9999999999995" y="440" as="targetPoint" />
          </mxGeometry>
        </mxCell>
        <mxCell id="95ozyLiAp2AXOH3v3bRi-14" value="이제 &lt;br&gt;막 시야에서 놓쳤는가?" style="rhombus;whiteSpace=wrap;html=1;" parent="95ozyLiAp2AXOH3v3bRi-3" vertex="1">
          <mxGeometry x="559.9999999999995" y="200" width="160" height="160" as="geometry" />
        </mxCell>
        <mxCell id="95ozyLiAp2AXOH3v3bRi-15" style="edgeStyle=orthogonalEdgeStyle;rounded=0;orthogonalLoop=1;jettySize=auto;html=1;" parent="95ozyLiAp2AXOH3v3bRi-3" source="95ozyLiAp2AXOH3v3bRi-16" target="95ozyLiAp2AXOH3v3bRi-19" edge="1">
          <mxGeometry relative="1" as="geometry" />
        </mxCell>
        <mxCell id="95ozyLiAp2AXOH3v3bRi-16" value="Base AI에 &lt;br&gt;최종 위치 전달" style="whiteSpace=wrap;html=1;" parent="95ozyLiAp2AXOH3v3bRi-3" vertex="1">
          <mxGeometry x="800" y="240" width="160" height="80" as="geometry" />
        </mxCell>
        <mxCell id="95ozyLiAp2AXOH3v3bRi-19" value="Update 문 종료" style="rounded=1;whiteSpace=wrap;html=1;" parent="95ozyLiAp2AXOH3v3bRi-3" vertex="1">
          <mxGeometry x="799.9999999999995" y="600" width="160" height="80" as="geometry" />
        </mxCell>
        <mxCell id="95ozyLiAp2AXOH3v3bRi-24" style="edgeStyle=orthogonalEdgeStyle;rounded=0;orthogonalLoop=1;jettySize=auto;html=1;" parent="95ozyLiAp2AXOH3v3bRi-3" source="95ozyLiAp2AXOH3v3bRi-22" target="95ozyLiAp2AXOH3v3bRi-19" edge="1">
          <mxGeometry relative="1" as="geometry">
            <Array as="points">
              <mxPoint x="400" y="600" />
            </Array>
          </mxGeometry>
        </mxCell>
        <mxCell id="95ozyLiAp2AXOH3v3bRi-22" value="Base AI에&lt;br&gt;현재 타겟 위치 전달" style="whiteSpace=wrap;html=1;" parent="95ozyLiAp2AXOH3v3bRi-3" vertex="1">
          <mxGeometry x="320" y="440" width="160" height="80" as="geometry" />
        </mxCell>
      </root>
    </mxGraphModel>
  </diagram>
</mxfile>
